/* XPM */
static char * footnote3_xpm[] = {
"25 25 41 1",
" 	c None",
".	c #4A3933",
"+	c #D8BBA2",
"@	c #322320",
"#	c #443533",
"$	c #C0A795",
"%	c #665D64",
"&	c #827473",
"*	c #09070C",
"=	c #070300",
"-	c #C8AE99",
";	c #BAA18C",
">	c #BAA18B",
",	c #3A3028",
"'	c #A79387",
")	c #2A2321",
"!	c #B7A090",
"~	c #9F8C83",
"{	c #605451",
"]	c #090504",
"^	c #72676A",
"/	c #867876",
"(	c #413E4E",
"_	c #0B0B16",
":	c #101635",
"<	c #97857E",
"[	c #59525A",
"}	c #0B0A11",
"|	c #C4AA97",
"1	c #BBA392",
"2	c #CCB19B",
"3	c #8A7972",
"4	c #0B0709",
"5	c #3F3D4F",
"6	c #2A2B43",
"7	c #605861",
"8	c #8F7E7A",
"9	c #1A1A28",
"0	c #0A0911",
"a	c #494554",
"b	c #18192B",
"                         ",
"                         ",
"                         ",
"                         ",
"                         ",
"     .+++ ++@            ",
"     .++++++@            ",
"     .++++++@            ",
"     .++++++@            ",
"     .++++++@            ",
"     #$++++%             ",
"      &++++%*=======     ",
"      &++++-;>>>>>>,     ",
"      &+++++++++'&&)     ",
"      &+++++++++!~{]     ",
"     ^++++++++++/(_      ",
"    :+++++++++++<[}      ",
"    :|+$1112++++!34      ",
"     5&6:::78+++<90      ",
"             aaaab       ",
"                         ",
"                         ",
"                         ",
"                         ",
"                         "};
