/* XPM */
static char * GnomeSword_xpm[] = {
"48 48 758 2",
"  	c None",
". 	c #C5DBDB",
"+ 	c #628484",
"@ 	c #B7BAC0",
"# 	c #BCC0C2",
"$ 	c #AEB0B2",
"% 	c #A3A4A7",
"& 	c #C9D1D5",
"* 	c #CACFD6",
"= 	c #BAC0C6",
"- 	c #CCD1D8",
"; 	c #C3C7CC",
"> 	c #D9DDE2",
", 	c #BBC1C6",
"' 	c #C8CCD0",
") 	c #C5C7CD",
"! 	c #C0C3C8",
"~ 	c #ACAEB3",
"{ 	c #A8ACAE",
"] 	c #A2A6A7",
"^ 	c #C8CAD1",
"/ 	c #D6D8DA",
"( 	c #C5C9CD",
"_ 	c #C4CED1",
": 	c #ADB4BD",
"< 	c #C5CAD2",
"[ 	c #D7DBDE",
"} 	c #DBDFE2",
"| 	c #CED2D5",
"1 	c #C5C8CB",
"2 	c #C5CACB",
"3 	c #D4D8DA",
"4 	c #D2D4D8",
"5 	c #D0D3D4",
"6 	c #C8CED0",
"7 	c #C6C9CB",
"8 	c #BFC3C7",
"9 	c #B8BBBF",
"0 	c #A7A8AD",
"a 	c #D2D7DA",
"b 	c #DADCE0",
"c 	c #DAD9DF",
"d 	c #D5D8DC",
"e 	c #C4CDD2",
"f 	c #BEC4CC",
"g 	c #BCC3CB",
"h 	c #BCC3C7",
"i 	c #CBD0D4",
"j 	c #BFC3C8",
"k 	c #C1C6C8",
"l 	c #C6CBCC",
"m 	c #C3C6C8",
"n 	c #BFBFC2",
"o 	c #C7C8CA",
"p 	c #DADBDF",
"q 	c #D3D7D9",
"r 	c #CED2D4",
"s 	c #C0C2C6",
"t 	c #BFC2C5",
"u 	c #C8CBCD",
"v 	c #B4B6BB",
"w 	c #E1E3E6",
"x 	c #D8E1E1",
"y 	c #D6DDDE",
"z 	c #D5DCDE",
"A 	c #D9DCE1",
"B 	c #D8DCE0",
"C 	c #D9DCE2",
"D 	c #D6DBDE",
"E 	c #B7BCC4",
"F 	c #B6BBC2",
"G 	c #CED3DE",
"H 	c #CAD0D5",
"I 	c #C5CBCE",
"J 	c #ADB1B4",
"K 	c #B5BBBB",
"L 	c #BCC1BF",
"M 	c #C6C7C6",
"N 	c #D8DCD5",
"O 	c #E5E7DF",
"P 	c #DDDFE1",
"Q 	c #DADBDE",
"R 	c #D6D9DA",
"S 	c #C9C9C8",
"T 	c #D3D5D5",
"U 	c #D1D3D5",
"V 	c #CED1D1",
"W 	c #3A3B3F",
"X 	c #EAECED",
"Y 	c #E5E6E8",
"Z 	c #DFDEDF",
"` 	c #DDDDDE",
" .	c #C0C3C4",
"..	c #C2C6CA",
"+.	c #DCDEE1",
"@.	c #DEE2E6",
"#.	c #BBBEC7",
"$.	c #CBCED8",
"%.	c #C3C7CF",
"&.	c #C5CAD5",
"*.	c #CBCFD9",
"=.	c #ACB1B7",
"-.	c #A3A8AF",
";.	c #93959D",
">.	c #A2A9AD",
",.	c #B0B4B6",
"'.	c #D7D7D0",
").	c #E1E3E3",
"!.	c #DFE0E2",
"~.	c #DEE0E1",
"{.	c #C8C9C9",
"].	c #D8D8D6",
"^.	c #DEDEDD",
"/.	c #DDDDDD",
"(.	c #83868A",
"_.	c #777A7D",
":.	c #17191A",
"<.	c #E63937",
"[.	c #AAB2B1",
"}.	c #E7E9E9",
"|.	c #C7C6C7",
"1.	c #B0B0B5",
"2.	c #D0D3D9",
"3.	c #DDDEE3",
"4.	c #DBDDE4",
"5.	c #DEE0E8",
"6.	c #D9DBE5",
"7.	c #D4D8E2",
"8.	c #D0D3DC",
"9.	c #C3C9D2",
"0.	c #C1C4CF",
"a.	c #B9BFC9",
"b.	c #9B9EA6",
"c.	c #969CA1",
"d.	c #9CA2A4",
"e.	c #AFB9B3",
"f.	c #DDDFDE",
"g.	c #E1E3E2",
"h.	c #C9C9C9",
"i.	c #E3E4E4",
"j.	c #E4E4E4",
"k.	c #E2E2E2",
"l.	c #999CA3",
"m.	c #848A8D",
"n.	c #7C8081",
"o.	c #424245",
"p.	c #1B1D20",
"q.	c #FA0505",
"r.	c #B47576",
"s.	c #7B8482",
"t.	c #EAE7E7",
"u.	c #C0C1C4",
"v.	c #D5D6DA",
"w.	c #DFDFE4",
"x.	c #CFCFD2",
"y.	c #C8C8CD",
"z.	c #E6E8EF",
"A.	c #E8E8F0",
"B.	c #C8CBCE",
"C.	c #C3C6CB",
"D.	c #C0C3CA",
"E.	c #C1C7D0",
"F.	c #AFB3BD",
"G.	c #B4BBC5",
"H.	c #979EA5",
"I.	c #8F949C",
"J.	c #868C93",
"K.	c #A8AEAF",
"L.	c #D3D4D7",
"M.	c #D9D9D9",
"N.	c #E3E4E2",
"O.	c #D4D4D1",
"P.	c #D2D3CF",
"Q.	c #B0B5B8",
"R.	c #909398",
"S.	c #84878C",
"T.	c #818486",
"U.	c #1A1C1E",
"V.	c #0F1012",
"W.	c #FC0303",
"X.	c #F74141",
"Y.	c #738484",
"Z.	c #919B99",
"`.	c #E0DFE2",
" +	c #D3D3D6",
".+	c #DFDFE6",
"++	c #D9D8DE",
"@+	c #EAEAEE",
"#+	c #EFF0F7",
"$+	c #CED0D4",
"%+	c #D7DBE4",
"&+	c #D1D5DD",
"*+	c #C6CDD2",
"=+	c #BABFC4",
"-+	c #B4BBC4",
";+	c #979DA2",
">+	c #879298",
",+	c #8E96A0",
"'+	c #ACB2B9",
")+	c #D0D3D2",
"!+	c #CCCECE",
"~+	c #E0E0DE",
"{+	c #DDDDE0",
"]+	c #BDC5CB",
"^+	c #AAB1B7",
"/+	c #90999D",
"(+	c #898C91",
"_+	c #818588",
":+	c #505558",
"<+	c #181A1C",
"[+	c #F90404",
"}+	c #7D7E7C",
"|+	c #6C7D7D",
"1+	c #E1E1E6",
"2+	c #E0E0E4",
"3+	c #D1D0D5",
"4+	c #C7C8CD",
"5+	c #DCDBDD",
"6+	c #EDEDF0",
"7+	c #F7F7F7",
"8+	c #E2E4EA",
"9+	c #CDD2D8",
"0+	c #C8CFD7",
"a+	c #CFD4DA",
"b+	c #CAD0D6",
"c+	c #B8C0C3",
"d+	c #B4BDC3",
"e+	c #A0A9AE",
"f+	c #949BA3",
"g+	c #7D8A92",
"h+	c #929CA2",
"i+	c #CACBCC",
"j+	c #CBCCCD",
"k+	c #D0D0CF",
"l+	c #DFDFDE",
"m+	c #CFD1D4",
"n+	c #C7CBCE",
"o+	c #B9BDC3",
"p+	c #A7AAAF",
"q+	c #8E9094",
"r+	c #797C7F",
"s+	c #353538",
"t+	c #0F1010",
"u+	c #B02626",
"v+	c #7F6E6C",
"w+	c #7B8C8D",
"x+	c #CFCFCE",
"y+	c #E2E0E3",
"z+	c #D7D5D7",
"A+	c #CDCFD1",
"B+	c #D4D5D8",
"C+	c #E7E3E4",
"D+	c #EEEEF0",
"E+	c #EEEEEC",
"F+	c #D3D3D3",
"G+	c #CDCED1",
"H+	c #D8DBDC",
"I+	c #D0D5D8",
"J+	c #C3C6CD",
"K+	c #A8AFB7",
"L+	c #A2AAAF",
"M+	c #959DA2",
"N+	c #818992",
"O+	c #9BA0A3",
"P+	c #C1C4C5",
"Q+	c #F7F7F0",
"R+	c #E9EAE9",
"S+	c #DFE1E4",
"T+	c #D4D5DB",
"U+	c #B3B7BA",
"V+	c #9CA1A5",
"W+	c #A2A6A8",
"X+	c #989C9F",
"Y+	c #6D6E70",
"Z+	c #1D1E1F",
"`+	c #FE0202",
" @	c #D62626",
".@	c #667978",
"+@	c #738481",
"@@	c #CCCCC7",
"#@	c #D4D3D3",
"$@	c #CDCDD0",
"%@	c #CBCDD0",
"&@	c #F3F3F3",
"*@	c #F6F6F6",
"=@	c #EFF2F3",
"-@	c #E4E9EB",
";@	c #D7D9DF",
">@	c #C0C6CA",
",@	c #B4BCC3",
"'@	c #ADB7BE",
")@	c #A5AEB4",
"!@	c #92999D",
"~@	c #999BA0",
"{@	c #F8F8F0",
"]@	c #DFDFDC",
"^@	c #D9DBDB",
"/@	c #EEEFEF",
"(@	c #E6E8EA",
"_@	c #C1C4C6",
":@	c #CFD1D6",
"<@	c #C5C7CC",
"[@	c #A8ADB1",
"}@	c #9EA0A4",
"|@	c #909195",
"1@	c #393B3D",
"2@	c #131415",
"3@	c #F90606",
"4@	c #5C706E",
"5@	c #6E7F7E",
"6@	c #C5C5BF",
"7@	c #E3DEDE",
"8@	c #DCDAD9",
"9@	c #CDCDCC",
"0@	c #D4D2D2",
"a@	c #DCDBDE",
"b@	c #EEEFF0",
"c@	c #DBDBDB",
"d@	c #E3E5E4",
"e@	c #DEDFE2",
"f@	c #B8BCC0",
"g@	c #ADB4BB",
"h@	c #A1A9B2",
"i@	c #AAB3BB",
"j@	c #949EA5",
"k@	c #F0F0E8",
"l@	c #EFEFEC",
"m@	c #FAFAF2",
"n@	c #F6F8F0",
"o@	c #E9E9EA",
"p@	c #E3E3E4",
"q@	c #CBCDCF",
"r@	c #D7DBDF",
"s@	c #ACB2B4",
"t@	c #B3B6BA",
"u@	c #ACADB2",
"v@	c #828385",
"w@	c #212324",
"x@	c #121212",
"y@	c #FA0707",
"z@	c #C24C49",
"A@	c #627473",
"B@	c #838E8B",
"C@	c #DFDEDE",
"D@	c #CECDCD",
"E@	c #E5E3E3",
"F@	c #E9E6E6",
"G@	c #E7E5E5",
"H@	c #EEEBEB",
"I@	c #F5F6F6",
"J@	c #F6F7F8",
"K@	c #EEF0F2",
"L@	c #E1E5E8",
"M@	c #D1D6DB",
"N@	c #C4C9D0",
"O@	c #B6BEC5",
"P@	c #A4AEB7",
"Q@	c #DADAD2",
"R@	c #E9E9E4",
"S@	c #F4F4ED",
"T@	c #F9F9F1",
"U@	c #EAEAE9",
"V@	c #E8E8E8",
"W@	c #E5E7EA",
"X@	c #DDE1E5",
"Y@	c #BFC4C7",
"Z@	c #BCBFC5",
"`@	c #B5B8BD",
" #	c #A5A9AE",
".#	c #A3A6A8",
"+#	c #414245",
"@#	c #121314",
"##	c #F21817",
"$#	c #A1A6A4",
"%#	c #697A7A",
"&#	c #929D99",
"*#	c #E4E0E0",
"=#	c #E5E2E2",
"-#	c #E2DFDD",
";#	c #D3D2D2",
">#	c #EEEAEA",
",#	c #EBEDEE",
"'#	c #D4D5D4",
")#	c #D1D3D3",
"!#	c #E6EAEC",
"~#	c #D9DADE",
"{#	c #C1C9CB",
"]#	c #B7BCC1",
"^#	c #D3D3D2",
"/#	c #E5E5E0",
"(#	c #EDEDE5",
"_#	c #EBEBE6",
":#	c #F0F0ED",
"<#	c #DCDCD7",
"[#	c #DCDCDB",
"}#	c #F0F1F0",
"|#	c #E9EBEB",
"1#	c #C7CACA",
"2#	c #D4D8DB",
"3#	c #CED2D8",
"4#	c #AAAEB6",
"5#	c #A2A7AC",
"6#	c #A7A9AF",
"7#	c #6F7377",
"8#	c #131414",
"9#	c #101010",
"0#	c #9F7570",
"a#	c #708180",
"b#	c #86908D",
"c#	c #DEDADA",
"d#	c #CECDCC",
"e#	c #D0D0D0",
"f#	c #E3E0DF",
"g#	c #E6E3E4",
"h#	c #DBDEE1",
"i#	c #F2F2F3",
"j#	c #F1F1F2",
"k#	c #ECEDEE",
"l#	c #E1E3E4",
"m#	c #B9BDC2",
"n#	c #D1D1CE",
"o#	c #D2D2CF",
"p#	c #E3E3DE",
"q#	c #E4E4E0",
"r#	c #EEEEE7",
"s#	c #F5F5ED",
"t#	c #F6F6F0",
"u#	c #E2E4E4",
"v#	c #E4E5E6",
"w#	c #E4E8E9",
"x#	c #BDC2C7",
"y#	c #A4AAAD",
"z#	c #ACB1B4",
"A#	c #B8BCBD",
"B#	c #A3A5A5",
"C#	c #6A6A6B",
"D#	c #0E1010",
"E#	c #FB0707",
"F#	c #EB3534",
"G#	c #677A78",
"H#	c #B1B1AB",
"I#	c #86908E",
"J#	c #E0DDDB",
"K#	c #EAEBEB",
"L#	c #E2E4E6",
"M#	c #BEC4CB",
"N#	c #C3C9CF",
"O#	c #959998",
"P#	c #C7C8C5",
"Q#	c #DFDFDA",
"R#	c #DBDBD9",
"S#	c #D9D9D4",
"T#	c #ECECE5",
"U#	c #F1F1EA",
"V#	c #EBEDED",
"W#	c #D1D5D6",
"X#	c #D0D3D7",
"Y#	c #E8E9EB",
"Z#	c #E4E7E9",
"`#	c #BCC0C3",
" $	c #C3C5C8",
".$	c #ABB1B8",
"+$	c #9FA6AC",
"@$	c #C1C3C5",
"#$	c #B9BABA",
"$$	c #121313",
"%$	c #0C0C0C",
"&$	c #F80606",
"*$	c #A6A7A2",
"=$	c #949E9D",
"-$	c #798380",
";$	c #D4D1D1",
">$	c #D1CFCF",
",$	c #CECECE",
"'$	c #E4E5E5",
")$	c #D4D6DB",
"!$	c #D5D7D9",
"~$	c #DDDFE3",
"{$	c #808889",
"]$	c #888D8D",
"^$	c #BABDBB",
"/$	c #E3E3DF",
"($	c #E3E3E0",
"_$	c #E6E6E4",
":$	c #E9EBED",
"<$	c #EEF3F0",
"[$	c #EDF1F0",
"}$	c #E5ECEA",
"|$	c #BAC7C6",
"1$	c #BAC6C6",
"2$	c #869696",
"3$	c #869798",
"4$	c #A7B2B3",
"5$	c #A0ADAD",
"6$	c #DBDFDF",
"7$	c #8B8E8E",
"8$	c #050505",
"9$	c #080808",
"0$	c #EE514F",
"a$	c #889593",
"b$	c #7B8580",
"c$	c #BAB7B7",
"d$	c #CCCAC9",
"e$	c #D1D0D0",
"f$	c #DFDFDF",
"g$	c #E8E8E9",
"h$	c #D2D2D3",
"i$	c #9DA0A4",
"j$	c #8B8D8E",
"k$	c #7F8688",
"l$	c #9E9F9F",
"m$	c #C4C4C3",
"n$	c #D3D3CE",
"o$	c #E4E4E2",
"p$	c #F2F2EC",
"q$	c #ECF2ED",
"r$	c #EFF3F0",
"s$	c #B6C0BC",
"t$	c #A6B6B5",
"u$	c #7D8F95",
"v$	c #7C8F95",
"w$	c #9FABB0",
"x$	c #708488",
"y$	c #76888C",
"z$	c #77878D",
"A$	c #5C7174",
"B$	c #768589",
"C$	c #1C2E2E",
"D$	c #030303",
"E$	c #F80909",
"F$	c #946E6D",
"G$	c #BBBBB3",
"H$	c #808B8B",
"I$	c #E6E2E2",
"J$	c #E7E7E7",
"K$	c #E6E7E7",
"L$	c #E3E3E1",
"M$	c #B1B9BE",
"N$	c #A8AFB3",
"O$	c #909494",
"P$	c #8A8C8E",
"Q$	c #909191",
"R$	c #C6C8C7",
"S$	c #DCDCDA",
"T$	c #CECECC",
"U$	c #CFCFCD",
"V$	c #ECEDE7",
"W$	c #DBDDDD",
"X$	c #BBC0C5",
"Y$	c #A1ADB5",
"Z$	c #A9B4BC",
"`$	c #7B8D93",
" %	c #90A1A4",
".%	c #667A81",
"+%	c #A7B0AE",
"@%	c #ABBAB9",
"#%	c #9CA8A8",
"$%	c #9AA8A6",
"%%	c #97A4A4",
"&%	c #839595",
"*%	c #242E2E",
"=%	c #010101",
"-%	c #000000",
";%	c #A53B3A",
">%	c #EE5351",
",%	c #899594",
"'%	c #A0A09C",
")%	c #838D8D",
"!%	c #DBD8D6",
"~%	c #D2D0D0",
"{%	c #C2C7C9",
"]%	c #B2B9BC",
"^%	c #A3ADB0",
"/%	c #979B9C",
"(%	c #868689",
"_%	c #7B7E81",
":%	c #919291",
"<%	c #C3C4C3",
"[%	c #E2E2E0",
"}%	c #D9D9D7",
"|%	c #C8CACA",
"1%	c #A1ABB2",
"2%	c #929FAB",
"3%	c #8EA2A6",
"4%	c #98A6A6",
"5%	c #97A4AE",
"6%	c #74878E",
"7%	c #7D9594",
"8%	c #829999",
"9%	c #AB9D9B",
"0%	c #E35A56",
"a%	c #F21411",
"b%	c #AE0606",
"c%	c #840403",
"d%	c #BA0605",
"e%	c #F70D0D",
"f%	c #936E6C",
"g%	c #A1A3A2",
"h%	c #6E7877",
"i%	c #CDC8C8",
"j%	c #909898",
"k%	c #7E8684",
"l%	c #9B9E9E",
"m%	c #999D9E",
"n%	c #8E9191",
"o%	c #777D7D",
"p%	c #7C7E7D",
"q%	c #A0A5A1",
"r%	c #CBCBC8",
"s%	c #AAAAAA",
"t%	c #6F7E82",
"u%	c #788B91",
"v%	c #677D7C",
"w%	c #95A8A6",
"x%	c #83969B",
"y%	c #7B9090",
"z%	c #857A78",
"A%	c #E11211",
"B%	c #D40B0A",
"C%	c #AC0707",
"D%	c #920605",
"E%	c #4C0201",
"F%	c #090000",
"G%	c #050000",
"H%	c #F2CB07",
"I%	c #F90C0C",
"J%	c #AD5D5D",
"K%	c #ABAEAC",
"L%	c #787875",
"M%	c #B4B6B1",
"N%	c #6B7E7C",
"O%	c #758587",
"P%	c #68777A",
"Q%	c #6B7C7C",
"R%	c #5E696A",
"S%	c #7F8280",
"T%	c #747878",
"U%	c #6E736F",
"V%	c #6B6F6B",
"W%	c #77827E",
"X%	c #728184",
"Y%	c #8E9C9B",
"Z%	c #526C6B",
"`%	c #7B9191",
" &	c #67726D",
".&	c #826868",
"+&	c #C73030",
"@&	c #BF1817",
"#&	c #910D0D",
"$&	c #490201",
"%&	c #0E0000",
"&&	c #B04141",
"*&	c #7E7E7C",
"=&	c #6E7672",
"-&	c #757F7C",
";&	c #7C8985",
">&	c #909695",
",&	c #949C99",
"'&	c #999E9E",
")&	c #486061",
"!&	c #3F595B",
"~&	c #6B7275",
"{&	c #626360",
"]&	c #595D58",
"^&	c #667878",
"/&	c #708383",
"(&	c #456262",
"_&	c #576565",
":&	c #B76969",
"<&	c #D60808",
"[&	c #A10E0E",
"}&	c #690505",
"|&	c #030000",
"1&	c #847B6A",
"2&	c #848B87",
"3&	c #989794",
"4&	c #697272",
"5&	c #5B6F6E",
"6&	c #617471",
"7&	c #6F7F7E",
"8&	c #9DA9A6",
"9&	c #818D8D",
"0&	c #415B5B",
"a&	c #425959",
"b&	c #5E7576",
"c&	c #637977",
"d&	c #6B7876",
"e&	c #8A7C7C",
"f&	c #B30303",
"g&	c #7B0303",
"h&	c #100000",
"i&	c #070000",
"j&	c #040202",
"k&	c #020202",
"l&	c #040404",
"m&	c #D46868",
"n&	c #C78B8B",
"o&	c #B67F7F",
"p&	c #9C6B6C",
"q&	c #8C605C",
"r&	c #696665",
"s&	c #505C5B",
"t&	c #6A7C7A",
"u&	c #566566",
"v&	c #344F5A",
"w&	c #314B57",
"x&	c #304C53",
"y&	c #566362",
"z&	c #7D1F1E",
"A&	c #8B0605",
"B&	c #550202",
"C&	c #0B0000",
"D&	c #010000",
"E&	c #020000",
"F&	c #070707",
"G&	c #B80000",
"H&	c #AF0000",
"I&	c #A32525",
"J&	c #A62121",
"K&	c #BB0000",
"L&	c #C30101",
"M&	c #EF0000",
"N&	c #EA0001",
"O&	c #9B1012",
"P&	c #633155",
"Q&	c #3D5269",
"R&	c #1E2F2F",
"S&	c #182324",
"T&	c #464065",
"U&	c #A31515",
"V&	c #870605",
"W&	c #540303",
"X&	c #040000",
"Y&	c #0A0A0A",
"Z&	c #0E0E0E",
"`&	c #280A0A",
" *	c #110101",
".*	c #150000",
"+*	c #170000",
"@*	c #120000",
"#*	c #0B0101",
"$*	c #040303",
"%*	c #741919",
"&*	c #9D2526",
"**	c #942727",
"=*	c #972626",
"-*	c #852020",
";*	c #970B0A",
">*	c #200101",
",*	c #131313",
"'*	c #141414",
")*	c #BF9031",
"!*	c #EDA809",
"~*	c #030404",
"{*	c #090909",
"]*	c #2D0303",
"^*	c #1E0101",
"/*	c #0B0B0B",
"                                                                                                ",
"                                                                                                ",
"                                                                                                ",
"                                                                                                ",
"                                                                                                ",
"                                                                      . . . .                   ",
"                                                                    . . . + .                   ",
"                                                        @ # $ %   . . . + . .                   ",
"                  & * = - ; >                     , ' ) ! ~ { ] . . . + . . .                   ",
"            ^ / ( _ : < [ } | 1 2             3 4 5 6 7 8 9 0 . . . + . . .                     ",
"        a b c d e f g h i j k l m n       o p [ q r s t u v . . . + . . .                       ",
"      w x y z A B C D E F G H I J K L M N O P Q R S T U V . . . + . . . W                       ",
"    X Y Z `  ...+.@.#.$.%.&.*.=.-.;.>.,.'.).!.~.{.].^./.. . . + . . . (._.:.                    ",
"  <.[.}.|.1.2.3.Y 4.5.6.7.8.9.0.a.b.c.d.e.f.g.h.i.j.k.. . . + . . . l.m.n.o.p.                  ",
"q.r.s.t.u.v.w.x.y.z.A.B.C.D.E.F.G.H.I.J.K.L.M.N.O.P.. . . + . . . k Q.R.S.T.U.V.                ",
"W.X.Y.Z.`. +.+w.++@+#+$+%+&+< *+=+-+;+>+,+'+)+!+~+. . . + . . . {+]+^+/+(+_+:+<+                ",
"  [+}+|+1+2+3+4+5+6+7+8+9+0+a+b+c+d+e+f+g+h+i+j+. . . + . . . k+l+m+n+o+p+q+r+s+t+              ",
"  u+v+w+x+y+z+A+B+C+D+E+F+G+H+I+J+K+L+M+N+O+P+. . . + . . . Q+R+T S+T+U+V+W+X+Y+Z+              ",
"  `+ @.@+@@@#@$@%@5+&@*@*@=@-@;@>@,@'@)@!@~@. . . + . . . {@]@^@/@(@_@:@<@[@}@|@1@2@            ",
"    3@4@5@6@7@8@9@0@a@b@c@F+d@e@f@g@h@i@j@. . . + . . . k@l@m@n@o@p@q@r@o+s@t@u@v@w@x@          ",
"    y@z@A@B@C@D@E@F@G@H@I@J@K@L@M@N@O@P@. . . + . . . Q@R@S@m@T@U@V@W@X@Y@Z@`@ #.#+#@#          ",
"      ##$#%#&#*#=#-#;#>#,#'#)#!#~#{#]#. . . + . . . ^#/#(#_#:#<#[#}#|#1#2#3#4#5#6#7#8#9#        ",
"      3@0#a#b#c#d#e#f#g#h#i#j#k#l#m#. . . + . . . n#o#p#q#r#s#{@t#u#v#w#[ x#y#z#A#B#C#D#        ",
"      E#F#G#H#I#=#J#V@V@K#L#M#N#N#. . . + . . . O#P#Q#R#S#T#U#V#W#X#/@Y#Z#`# $.$+$@$#$$$%$      ",
"        &$*$=$-$;$>$x+,$'$)$!$~$. . . + . . . {$]$^$<#o#/$($_$d@:$<$[$}$|$1$2$3$4$5$6$7$8$9$    ",
"          0$a$b$c$d$e$f$V@g$h$. . . + . . . i$j$k$l$m$Q#~+n$o$p$q$r$s$t$u$v$w$x$y$z$A$B$C$D$    ",
"          E$F$G$H$>$I$J$K$L$. . . + . . . M$N$O$P$Q$R$S$T$U$V$W$X$Y$Z$`$ %.%+%@%#%$%%%&%*%=%-%  ",
"          ;%>%,%'%)%!%~%F+. . . + . . . {%]%^%/%(%_%:%<%[%}%|%1%2%3%4%5%6%7%8%9%0%a%b%c%d%-%-%-%",
"            e%f%g%h%i%. . . . + . . . #%j%k%l%m%n%o%p%q%r%s%t%u%v%w%x%y%z%A%B%C%D%E%F%G%-%-%-%-%",
"          H%I%J%K%L%. . . . + . . . M%N%O%P%Q%R%S%T%U%V%W%X%Y%Z%`% &.&+&@&#&$&%&-%-%-%-%-%-%-%-%",
"        H%H%H%&&*&. . . . + . . . =&-&;&>&,&'&)&!&~&{&]&^&/&(&_&:&<&[&}&F%|&-%-%=%-%-%-%-%-%-%-%",
"            H%H%. . . . + . . . 1&2&3&4&5&6&7&8&9&0&a&b&c&d&e&f&g&h&G%i&j&k&-%l&k&=%-%-%-%-%-%  ",
"              H%H%. . + . . . m&m&n&o&p&q&r&s&t&u&v&w&x&y&z&A&B&C&D&E&-%=%-%D$F&l&k&-%-%-%-%    ",
"              H%H%H%+ . . . G&H&I&J&K&L&M&N&O&P&Q&R&S&T&U&V&W&X&-%-%-%k&D$Y&9#Z&Y&              ",
"            H%H%H%H%H%. . `&X&C& *.*+*@*#*j&$*%*&***=*-*;*>*-%-%-%-%k&F&9#,*'*                  ",
"          H%H%)*!*H%H%H%-%-%-%-%-%-%-%-%-%=%=%-%~*{*]*^*X&-%-%-%-%=%8$/*                        ",
"        H%H%)*!*)*H%H%H%H%-%-%-%-%-%-%-%-%-%-%-%-%-%-%-%-%-%-%-%-%=%                            ",
"      H%H%)*!*)*H%H%    H%H%-%-%-%-%-%-%-%-%-%-%-%-%-%-%-%-%-%-%-%                              ",
"    H%H%)*!*)*H%H%        H%H%                  -%-%-%-%-%-%                                    ",
"  H%H%)*!*)*H%H%          H%                                                                    ",
"H%H%)*!*)*H%H%                                                                                  ",
"H%)*!*)*H%H%                                                                                    ",
"H%!*)*H%H%                                                                                      ",
"H%H%H%H%                                                                                        ",
"                                                                                                ",
"                                                                                                ",
"                                                                                                ",
"                                                                                                "};
