/* XPM */
static char * tt_xpm[] = {
"24 24 2 1",
" 	c none",
".	c #000000000000",
"                        ",
"                        ",
"                        ",
"                        ",
"                        ",
"                        ",
"                        ",
"                        ",
"    ....... .......     ",
"       .       .        ",
"       .       .        ",
"       .       .        ",
"       .       .        ",
"       .       .        ",
"       .       .        ",
"       .       .        ",
"                        ",
"                        ",
"                        ",
"                        ",
"                        ",
"                        ",
"                        ",
"                        "};
