/* XPM */
static char * GnomeSword2_xpm[] = {
"48 48 642 2",
"  	g None",
". 	g #7C7084",
"+ 	g #89A8B6",
"@ 	g #628484",
"# 	g #B7BAC0",
"$ 	g #BCC0C2",
"% 	g #AEB0B2",
"& 	g #A3A4A7",
"* 	g #C9D1D5",
"= 	g #CACFD6",
"- 	g #BAC0C6",
"; 	g #CCD1D8",
"> 	g #C3C7CC",
", 	g #D9DDE2",
"' 	g #BBC1C6",
") 	g #C8CCD0",
"! 	g #C5C7CD",
"~ 	g #C0C3C8",
"{ 	g #ACAEB3",
"] 	g #A8ACAE",
"^ 	g #C8CAD1",
"/ 	g #D6D8DA",
"( 	g #C5C9CD",
"_ 	g #C4CED1",
": 	g #ADB4BD",
"< 	g #C5CAD2",
"[ 	g #D7DBDE",
"} 	g #DBDFE2",
"| 	g #CED2D5",
"1 	g #C5C8CB",
"2 	g #C5CACB",
"3 	g #D4D8DA",
"4 	g #D2D4D8",
"5 	g #D0D3D4",
"6 	g #C8CED0",
"7 	g #C6C9CB",
"8 	g #BFC3C7",
"9 	g #B8BBBF",
"0 	g #D2D7DA",
"a 	g #DADCE0",
"b 	g #DAD9DF",
"c 	g #D5D8DC",
"d 	g #C4CDD2",
"e 	g #BEC4CC",
"f 	g #BCC3CB",
"g 	g #BCC3C7",
"h 	g #CBD0D4",
"i 	g #BFC3C8",
"j 	g #C1C6C8",
"k 	g #C6CBCC",
"l 	g #C3C6C8",
"m 	g #BFBFC2",
"n 	g #C7C8CA",
"o 	g #DADBDF",
"p 	g #D3D7D9",
"q 	g #CED2D4",
"r 	g #C0C2C6",
"s 	g #BFC2C5",
"t 	g #C8CBCD",
"u 	g #E1E3E6",
"v 	g #D8E1E1",
"w 	g #D6DDDE",
"x 	g #D5DCDE",
"y 	g #D9DCE1",
"z 	g #D8DCE0",
"A 	g #D9DCE2",
"B 	g #D6DBDE",
"C 	g #B7BCC4",
"D 	g #B6BBC2",
"E 	g #CED3DE",
"F 	g #CAD0D5",
"G 	g #C5CBCE",
"H 	g #ADB1B4",
"I 	g #B5BBBB",
"J 	g #BCC1BF",
"K 	g #C6C7C6",
"L 	g #D8DCD5",
"M 	g #E5E7DF",
"N 	g #DDDFE1",
"O 	g #DADBDE",
"P 	g #D6D9DA",
"Q 	g #C9C9C8",
"R 	g #D3D5D5",
"S 	g #D1D3D5",
"T 	g #EAECED",
"U 	g #E5E6E8",
"V 	g #DFDEDF",
"W 	g #DDDDDE",
"X 	g #C0C3C4",
"Y 	g #C2C6CA",
"Z 	g #DCDEE1",
"` 	g #DEE2E6",
" .	g #BBBEC7",
"..	g #CBCED8",
"+.	g #C3C7CF",
"@.	g #C5CAD5",
"#.	g #CBCFD9",
"$.	g #ACB1B7",
"%.	g #A3A8AF",
"&.	g #93959D",
"*.	g #A2A9AD",
"=.	g #B0B4B6",
"-.	g #D7D7D0",
";.	g #E1E3E3",
">.	g #DFE0E2",
",.	g #DEE0E1",
"'.	g #C8C9C9",
").	g #D8D8D6",
"!.	g #DEDEDD",
"~.	g #777A7D",
"{.	g #17191A",
"].	g #0F1EF1",
"^.	g #AAB2B1",
"/.	g #E7E9E9",
"(.	g #C7C6C7",
"_.	g #B0B0B5",
":.	g #D0D3D9",
"<.	g #DDDEE3",
"[.	g #DBDDE4",
"}.	g #DEE0E8",
"|.	g #D9DBE5",
"1.	g #D4D8E2",
"2.	g #D0D3DC",
"3.	g #C3C9D2",
"4.	g #C1C4CF",
"5.	g #B9BFC9",
"6.	g #9B9EA6",
"7.	g #969CA1",
"8.	g #9CA2A4",
"9.	g #AFB9B3",
"0.	g #DDDFDE",
"a.	g #E1E3E2",
"b.	g #C9C9C9",
"c.	g #E3E4E4",
"d.	g #E4E4E4",
"e.	g #848A8D",
"f.	g #7C8081",
"g.	g #424245",
"h.	g #1B1D20",
"i.	g #7B8482",
"j.	g #EAE7E7",
"k.	g #C0C1C4",
"l.	g #D5D6DA",
"m.	g #DFDFE4",
"n.	g #CFCFD2",
"o.	g #C8C8CD",
"p.	g #E6E8EF",
"q.	g #E8E8F0",
"r.	g #C8CBCE",
"s.	g #C3C6CB",
"t.	g #C0C3CA",
"u.	g #C1C7D0",
"v.	g #AFB3BD",
"w.	g #B4BBC5",
"x.	g #979EA5",
"y.	g #8F949C",
"z.	g #868C93",
"A.	g #A8AEAF",
"B.	g #D3D4D7",
"C.	g #D9D9D9",
"D.	g #E3E4E2",
"E.	g #D4D4D1",
"F.	g #B0B5B8",
"G.	g #909398",
"H.	g #84878C",
"I.	g #818486",
"J.	g #1A1C1E",
"K.	g #0F1012",
"L.	g #738484",
"M.	g #919B99",
"N.	g #E0DFE2",
"O.	g #D3D3D6",
"P.	g #DFDFE6",
"Q.	g #D9D8DE",
"R.	g #EAEAEE",
"S.	g #EFF0F7",
"T.	g #CED0D4",
"U.	g #D7DBE4",
"V.	g #D1D5DD",
"W.	g #C6CDD2",
"X.	g #BABFC4",
"Y.	g #B4BBC4",
"Z.	g #979DA2",
"`.	g #879298",
" +	g #8E96A0",
".+	g #ACB2B9",
"++	g #D0D3D2",
"@+	g #CCCECE",
"#+	g #BDC5CB",
"$+	g #AAB1B7",
"%+	g #90999D",
"&+	g #898C91",
"*+	g #818588",
"=+	g #505558",
"-+	g #181A1C",
";+	g #7D7E7C",
">+	g #6C7D7D",
",+	g #E1E1E6",
"'+	g #E0E0E4",
")+	g #D1D0D5",
"!+	g #C7C8CD",
"~+	g #DCDBDD",
"{+	g #EDEDF0",
"]+	g #F7F7F7",
"^+	g #E2E4EA",
"/+	g #CDD2D8",
"(+	g #C8CFD7",
"_+	g #CFD4DA",
":+	g #CAD0D6",
"<+	g #B8C0C3",
"[+	g #B4BDC3",
"}+	g #A0A9AE",
"|+	g #949BA3",
"1+	g #7D8A92",
"2+	g #929CA2",
"3+	g #CACBCC",
"4+	g #DFDFDE",
"5+	g #CFD1D4",
"6+	g #C7CBCE",
"7+	g #B9BDC3",
"8+	g #A7AAAF",
"9+	g #8E9094",
"0+	g #797C7F",
"a+	g #353538",
"b+	g #0F1010",
"c+	g #039FFD",
"d+	g #7B8C8D",
"e+	g #CFCFCE",
"f+	g #E2E0E3",
"g+	g #D7D5D7",
"h+	g #CDCFD1",
"i+	g #D4D5D8",
"j+	g #E7E3E4",
"k+	g #EEEEF0",
"l+	g #EEEEEC",
"m+	g #D3D3D3",
"n+	g #CDCED1",
"o+	g #D8DBDC",
"p+	g #D0D5D8",
"q+	g #C3C6CD",
"r+	g #A8AFB7",
"s+	g #A2AAAF",
"t+	g #959DA2",
"u+	g #818992",
"v+	g #9BA0A3",
"w+	g #E9EAE9",
"x+	g #DFE1E4",
"y+	g #D4D5DB",
"z+	g #B3B7BA",
"A+	g #9CA1A5",
"B+	g #A2A6A8",
"C+	g #989C9F",
"D+	g #6D6E70",
"E+	g #1D1E1F",
"F+	g #667978",
"G+	g #738481",
"H+	g #CCCCC7",
"I+	g #D4D3D3",
"J+	g #CDCDD0",
"K+	g #CBCDD0",
"L+	g #F3F3F3",
"M+	g #F6F6F6",
"N+	g #EFF2F3",
"O+	g #E4E9EB",
"P+	g #D7D9DF",
"Q+	g #C0C6CA",
"R+	g #B4BCC3",
"S+	g #ADB7BE",
"T+	g #A5AEB4",
"U+	g #92999D",
"V+	g #DFDFDC",
"W+	g #D9DBDB",
"X+	g #EEEFEF",
"Y+	g #E6E8EA",
"Z+	g #C1C4C6",
"`+	g #CFD1D6",
" @	g #C5C7CC",
".@	g #A8ADB1",
"+@	g #9EA0A4",
"@@	g #909195",
"#@	g #393B3D",
"$@	g #131415",
"%@	g #5C706E",
"&@	g #6E7F7E",
"*@	g #C5C5BF",
"=@	g #E3DEDE",
"-@	g #DCDAD9",
";@	g #CDCDCC",
">@	g #D4D2D2",
",@	g #DCDBDE",
"'@	g #EEEFF0",
")@	g #DBDBDB",
"!@	g #E3E5E4",
"~@	g #DEDFE2",
"{@	g #B8BCC0",
"]@	g #ADB4BB",
"^@	g #A1A9B2",
"/@	g #AAB3BB",
"(@	g #EFEFEC",
"_@	g #FAFAF2",
":@	g #F6F8F0",
"<@	g #E9E9EA",
"[@	g #E3E3E4",
"}@	g #CBCDCF",
"|@	g #D7DBDF",
"1@	g #ACB2B4",
"2@	g #B3B6BA",
"3@	g #ACADB2",
"4@	g #828385",
"5@	g #212324",
"6@	g #121212",
"7@	g #627473",
"8@	g #838E8B",
"9@	g #DFDEDE",
"0@	g #CECDCD",
"a@	g #E5E3E3",
"b@	g #E9E6E6",
"c@	g #E7E5E5",
"d@	g #EEEBEB",
"e@	g #F5F6F6",
"f@	g #F6F7F8",
"g@	g #EEF0F2",
"h@	g #E1E5E8",
"i@	g #D1D6DB",
"j@	g #C4C9D0",
"k@	g #B6BEC5",
"l@	g #E9E9E4",
"m@	g #F4F4ED",
"n@	g #F9F9F1",
"o@	g #EAEAE9",
"p@	g #E8E8E8",
"q@	g #E5E7EA",
"r@	g #DDE1E5",
"s@	g #BFC4C7",
"t@	g #BCBFC5",
"u@	g #B5B8BD",
"v@	g #A5A9AE",
"w@	g #A3A6A8",
"x@	g #414245",
"y@	g #121314",
"z@	g #697A7A",
"A@	g #929D99",
"B@	g #E4E0E0",
"C@	g #E5E2E2",
"D@	g #E2DFDD",
"E@	g #D3D2D2",
"F@	g #EEEAEA",
"G@	g #EBEDEE",
"H@	g #D4D5D4",
"I@	g #D1D3D3",
"J@	g #E6EAEC",
"K@	g #D9DADE",
"L@	g #C1C9CB",
"M@	g #E5E5E0",
"N@	g #EDEDE5",
"O@	g #EBEBE6",
"P@	g #F0F0ED",
"Q@	g #DCDCD7",
"R@	g #DCDCDB",
"S@	g #F0F1F0",
"T@	g #E9EBEB",
"U@	g #C7CACA",
"V@	g #D4D8DB",
"W@	g #CED2D8",
"X@	g #AAAEB6",
"Y@	g #A2A7AC",
"Z@	g #A7A9AF",
"`@	g #6F7377",
" #	g #131414",
".#	g #101010",
"+#	g #708180",
"@#	g #86908D",
"##	g #DEDADA",
"$#	g #CECDCC",
"%#	g #D0D0D0",
"&#	g #E3E0DF",
"*#	g #E6E3E4",
"=#	g #DBDEE1",
"-#	g #F2F2F3",
";#	g #F1F1F2",
">#	g #ECEDEE",
",#	g #E1E3E4",
"'#	g #D2D2CF",
")#	g #E3E3DE",
"!#	g #E4E4E0",
"~#	g #EEEEE7",
"{#	g #F5F5ED",
"]#	g #F8F8F0",
"^#	g #F6F6F0",
"/#	g #E2E4E4",
"(#	g #E4E5E6",
"_#	g #E4E8E9",
":#	g #BDC2C7",
"<#	g #A4AAAD",
"[#	g #ACB1B4",
"}#	g #B8BCBD",
"|#	g #A3A5A5",
"1#	g #6A6A6B",
"2#	g #0E1010",
"3#	g #677A78",
"4#	g #B1B1AB",
"5#	g #86908E",
"6#	g #E0DDDB",
"7#	g #EAEBEB",
"8#	g #E2E4E6",
"9#	g #BEC4CB",
"0#	g #C3C9CF",
"a#	g #C7C8C5",
"b#	g #DFDFDA",
"c#	g #DBDBD9",
"d#	g #D9D9D4",
"e#	g #ECECE5",
"f#	g #F1F1EA",
"g#	g #EBEDED",
"h#	g #D1D5D6",
"i#	g #D0D3D7",
"j#	g #E8E9EB",
"k#	g #E4E7E9",
"l#	g #BCC0C3",
"m#	g #C3C5C8",
"n#	g #ABB1B8",
"o#	g #9FA6AC",
"p#	g #C1C3C5",
"q#	g #B9BABA",
"r#	g #121313",
"s#	g #0C0C0C",
"t#	g #949E9D",
"u#	g #798380",
"v#	g #D4D1D1",
"w#	g #D1CFCF",
"x#	g #CECECE",
"y#	g #E4E5E5",
"z#	g #D4D6DB",
"A#	g #D5D7D9",
"B#	g #888D8D",
"C#	g #BABDBB",
"D#	g #E3E3DF",
"E#	g #E3E3E0",
"F#	g #E6E6E4",
"G#	g #E9EBED",
"H#	g #EEF3F0",
"I#	g #EDF1F0",
"J#	g #E5ECEA",
"K#	g #BAC7C6",
"L#	g #BAC6C6",
"M#	g #869696",
"N#	g #869798",
"O#	g #A7B2B3",
"P#	g #A0ADAD",
"Q#	g #DBDFDF",
"R#	g #8B8E8E",
"S#	g #050505",
"T#	g #080808",
"U#	g #7B8580",
"V#	g #BAB7B7",
"W#	g #CCCAC9",
"X#	g #D1D0D0",
"Y#	g #DFDFDF",
"Z#	g #E8E8E9",
"`#	g #8B8D8E",
" $	g #7F8688",
".$	g #9E9F9F",
"+$	g #C4C4C3",
"@$	g #E0E0DE",
"#$	g #D3D3CE",
"$$	g #E4E4E2",
"%$	g #F2F2EC",
"&$	g #ECF2ED",
"*$	g #EFF3F0",
"=$	g #B6C0BC",
"-$	g #A6B6B5",
";$	g #7D8F95",
">$	g #7C8F95",
",$	g #9FABB0",
"'$	g #708488",
")$	g #76888C",
"!$	g #77878D",
"~$	g #5C7174",
"{$	g #768589",
"]$	g #1C2E2E",
"^$	g #030303",
"/$	g #BBBBB3",
"($	g #808B8B",
"_$	g #E6E2E2",
":$	g #E7E7E7",
"<$	g #E6E7E7",
"[$	g #A8AFB3",
"}$	g #909494",
"|$	g #8A8C8E",
"1$	g #909191",
"2$	g #C6C8C7",
"3$	g #DCDCDA",
"4$	g #CECECC",
"5$	g #CFCFCD",
"6$	g #ECEDE7",
"7$	g #DBDDDD",
"8$	g #BBC0C5",
"9$	g #A1ADB5",
"0$	g #A9B4BC",
"a$	g #7B8D93",
"b$	g #90A1A4",
"c$	g #667A81",
"d$	g #A7B0AE",
"e$	g #ABBAB9",
"f$	g #9CA8A8",
"g$	g #9AA8A6",
"h$	g #97A4A4",
"i$	g #839595",
"j$	g #242E2E",
"k$	g #010101",
"l$	g #000000",
"m$	g #A0A09C",
"n$	g #838D8D",
"o$	g #DBD8D6",
"p$	g #D2D0D0",
"q$	g #B2B9BC",
"r$	g #A3ADB0",
"s$	g #979B9C",
"t$	g #868689",
"u$	g #7B7E81",
"v$	g #919291",
"w$	g #C3C4C3",
"x$	g #E2E2E0",
"y$	g #D9D9D7",
"z$	g #C8CACA",
"A$	g #A1ABB2",
"B$	g #929FAB",
"C$	g #8EA2A6",
"D$	g #98A6A6",
"E$	g #97A4AE",
"F$	g #74878E",
"G$	g #7D9594",
"H$	g #829999",
"I$	g #A1A3A2",
"J$	g #6E7877",
"K$	g #CDC8C8",
"L$	g #909898",
"M$	g #7E8684",
"N$	g #9B9E9E",
"O$	g #999D9E",
"P$	g #8E9191",
"Q$	g #777D7D",
"R$	g #7C7E7D",
"S$	g #A0A5A1",
"T$	g #CBCBC8",
"U$	g #AAAAAA",
"V$	g #6F7E82",
"W$	g #788B91",
"X$	g #677D7C",
"Y$	g #95A8A6",
"Z$	g #83969B",
"`$	g #7B9090",
" %	g #3F18C1",
".%	g #090000",
"+%	g #050000",
"@%	g #F2CB07",
"#%	g #787875",
"$%	g #6B7E7C",
"%%	g #758587",
"&%	g #68777A",
"*%	g #6B7C7C",
"=%	g #5E696A",
"-%	g #7F8280",
";%	g #747878",
">%	g #6E736F",
",%	g #6B6F6B",
"'%	g #77827E",
")%	g #728184",
"!%	g #8E9C9B",
"~%	g #526C6B",
"{%	g #7B9191",
"]%	g #67726D",
"^%	g #0E0000",
"/%	g #7E7E7C",
"(%	g #757F7C",
"_%	g #7C8985",
":%	g #909695",
"<%	g #949C99",
"[%	g #999E9E",
"}%	g #486061",
"|%	g #3F595B",
"1%	g #6B7275",
"2%	g #626360",
"3%	g #595D58",
"4%	g #667878",
"5%	g #708383",
"6%	g #456262",
"7%	g #576565",
"8%	g #030000",
"9%	g #848B87",
"0%	g #989794",
"a%	g #697272",
"b%	g #5B6F6E",
"c%	g #617471",
"d%	g #6F7F7E",
"e%	g #9DA9A6",
"f%	g #818D8D",
"g%	g #415B5B",
"h%	g #425959",
"i%	g #5E7576",
"j%	g #637977",
"k%	g #6B7876",
"l%	g #100000",
"m%	g #070000",
"n%	g #040202",
"o%	g #020202",
"p%	g #040404",
"q%	g #696665",
"r%	g #505C5B",
"s%	g #6A7C7A",
"t%	g #566566",
"u%	g #344F5A",
"v%	g #314B57",
"w%	g #304C53",
"x%	g #566362",
"y%	g #0B0000",
"z%	g #010000",
"A%	g #020000",
"B%	g #070707",
"C%	g #3D5269",
"D%	g #1E2F2F",
"E%	g #182324",
"F%	g #464065",
"G%	g #040000",
"H%	g #0A0A0A",
"I%	g #0E0E0E",
"J%	g #110101",
"K%	g #150000",
"L%	g #170000",
"M%	g #120000",
"N%	g #0B0101",
"O%	g #040303",
"P%	g #200101",
"Q%	g #131313",
"R%	g #141414",
"S%	g #BF9031",
"T%	g #EDA809",
"U%	g #030404",
"V%	g #090909",
"W%	g #2D0303",
"X%	g #1E0101",
"Y%	g #0B0B0B",
"                                                                                                ",
"                                                                                                ",
"                                                                                                ",
"                                                                                                ",
"                                                                      . . . . .                 ",
"                                                                    . + + + + .                 ",
"                                                                  . + + + @ + .                 ",
"                                                        # $ % & . + + + @ + + .                 ",
"                  * = - ; > ,                     ' ) ! ~ { ] . + + + @ + + + .                 ",
"            ^ / ( _ : < [ } | 1 2             3 4 5 6 7 8 9 . + + + @ + + + .                   ",
"        0 a b c d e f g h i j k l m       n o [ p q r s t . + + + @ + + + .                     ",
"      u v w x y z A B C D E F G H I J K L M N O P Q R S . + + + @ + + + .                       ",
"    T U V W X Y Z `  ...+.@.#.$.%.&.*.=.-.;.>.,.'.).!.. + + + @ + + + . ~.{.                    ",
"  ].^./.(._.:.<.U [.}.|.1.2.3.4.5.6.7.8.9.0.a.b.c.d.. + + + @ + + + . e.f.g.h.                  ",
"].].i.j.k.l.m.n.o.p.q.r.s.t.u.v.w.x.y.z.A.B.C.D.E.. + + + @ + + + . F.G.H.I.J.K.                ",
"].].L.M.N.O.P.m.Q.R.S.T.U.V.< W.X.Y.Z.`. +.+++@+. + + + @ + + + . #+$+%+&+*+=+-+                ",
"  ].;+>+,+'+)+!+~+{+]+^+/+(+_+:+<+[+}+|+1+2+3+. + + + @ + + + . 4+5+6+7+8+9+0+a+b+              ",
"  ].c+d+e+f+g+h+i+j+k+l+m+n+o+p+q+r+s+t+u+v+. + + + @ + + + . w+R x+y+z+A+B+C+D+E+              ",
"  ].].F+G+H+I+J+K+~+L+M+M+N+O+P+Q+R+S+T+U+. + + + @ + + + . V+W+X+Y+Z+`+ @.@+@@@#@$@            ",
"    ].%@&@*@=@-@;@>@,@'@)@m+!@~@{@]@^@/@. + + + @ + + + . (@_@:@<@[@}@|@7+1@2@3@4@5@6@          ",
"    ].].7@8@9@0@a@b@c@d@e@f@g@h@i@j@k@. + + + @ + + + . l@m@_@n@o@p@q@r@s@t@u@v@w@x@y@          ",
"      ].c+z@A@B@C@D@E@F@G@H@I@J@K@L@. + + + @ + + + . M@N@O@P@Q@R@S@T@U@V@W@X@Y@Z@`@ #.#        ",
"      ].c++#@###$#%#&#*#=#-#;#>#,#. + + + @ + + + . '#)#!#~#{#]#^#/#(#_#[ :#<#[#}#|#1#2#        ",
"      ].].3#4#5#C@6#p@p@7#8#9#0#. + + + @ + + + . a#b#c#d#e#f#g#h#i#X+j#k#l#m#n#o#p#q#r#s#      ",
"        ].c+t#u#v#w#e+x#y#z#A#. + + + @ + + + . B#C#Q@'#D#E#F#!@G#H#I#J#K#L#M#N#O#P#Q#R#S#T#    ",
"          ].c+U#V#W#X#Y#p@Z#. + + + @ + + + . `# $.$+$b#@$#$$$%$&$*$=$-$;$>$,$'$)$!$~${$]$^$    ",
"          ].c+/$($w#_$:$<$. + + + @ + + + . [$}$|$1$2$3$4$5$6$7$8$9$0$a$b$c$d$e$f$g$h$i$j$k$l$  ",
"          ].].c+m$n$o$p$. + + + @ + + + . q$r$s$t$u$v$w$x$y$z$A$B$C$D$E$F$G$H$c+].].].].].l$l$l$",
"            ].c+I$J$K$. + + + @ + + + . L$M$N$O$P$Q$R$S$T$U$V$W$X$Y$Z$`$c+].].].]. %.%+%l$l$l$l$",
"          @%].c+c+#%. + + + @ + + + . $%%%&%*%=%-%;%>%,%'%)%!%~%{%]%c+].].]. %^%l$l$l$l$l$l$l$l$",
"        @%@%@%]./%. + + + @ + + + . (%_%:%<%[%}%|%1%2%3%4%5%6%7%].].].]..%8%l$l$k$l$l$l$l$l$l$l$",
"            @%@%. + + + @ + + + . 9%0%a%b%c%d%e%f%g%h%i%j%k%c+].].l%+%m%n%o%l$p%o%k$l$l$l$l$l$  ",
"              @%@%+ + @ + + + . c+c+c+c+c+q%r%s%t%u%v%w%x%].].].y%z%A%l$k$l$^$B%p%o%l$l$l$l$    ",
"              @%@%@%@ + + + . ].].].].].].].].].C%D%E%F%].]. %G%l$l$l$o%^$H%.#I%H%              ",
"            @%@%@%@%@%+ + . G%y%J%K%L%M%N%n%O%].].].].].].P%l$l$l$l$o%B%.#Q%R%                  ",
"          @%@%S%T%@%@%@%. l$l$l$l$l$l$l$l$k$k$l$U%V%W%X%G%l$l$l$l$k$S#Y%                        ",
"        @%@%S%T%S%@%@%@%@%l$l$l$l$l$l$l$l$l$l$l$l$l$l$l$l$l$l$l$l$k$                            ",
"      @%@%S%T%S%@%@%    @%@%l$l$l$l$l$l$l$l$l$l$l$l$l$l$l$l$l$l$l$                              ",
"    @%@%S%T%S%@%@%        @%@%                  l$l$l$l$l$l$                                    ",
"  @%@%S%T%S%@%@%          @%                                                                    ",
"@%@%S%T%S%@%@%                                                                                  ",
"@%S%T%S%@%@%                                                                                    ",
"@%T%S%@%@%                                                                                      ",
"@%@%@%@%                                                                                        ",
"                                                                                                ",
"                                                                                                ",
"                                                                                                ",
"                                                                                                "};
