/* XPM */
static char * strongs3_xpm[] = {
"35 35 3 1",
" 	c None",
".	c #E50D2E",
"+	c #020202",
"                                   ",
"                                   ",
"                                   ",
"                                   ",
"                                   ",
"                                   ",
"                                   ",
"                                   ",
"                                   ",
"       ..                 ..       ",
"      ..                   ..      ",
"     ..                     ..     ",
"    ..                       ..    ",
"   ..    +       +   + +   +  ..   ",
"  ..    +       ++  +  +  +    ..  ",
" ..     ++++   + +  +  +  ++++  .. ",
"..         +  +  +  +  +     +   ..",
"..         + +   + +   +     +   ..",
" ..    +   +++++++ +   +++   +  .. ",
"  ..   +  ++    +  +   + +  ++ ..  ",
"   ..   ++          ++    ++  ..   ",
"    ..                       ..    ",
"     ..                     ..     ",
"      ..                   ..      ",
"       ..                 ..       ",
"                                   ",
"                                   ",
"                                   ",
"                                   ",
"                                   ",
"                                   ",
"                                   ",
"                                   ",
"                                   ",
"                                   "};
