/* XPM */
static char * dock_xpm[] = {
"25 25 307 2",
"  	c None",
". 	c #C7C7C7",
"+ 	c #020211",
"@ 	c #07074D",
"# 	c #121250",
"$ 	c #32325B",
"% 	c #0B0B14",
"& 	c #040426",
"* 	c #1111AF",
"= 	c #2A2AB8",
"- 	c #7373D1",
"; 	c #19192E",
"> 	c #06060A",
", 	c #1A1A2E",
"' 	c #1D1D2F",
") 	c #262632",
"! 	c #08080B",
"~ 	c #383838",
"{ 	c #D9DADC",
"] 	c #E5E5E6",
"^ 	c #DBDBDB",
"/ 	c #E5E5E5",
"( 	c #DDDDDD",
"_ 	c #F6F6F6",
": 	c #D1D1D1",
"< 	c #DCDCDC",
"[ 	c #DADADA",
"} 	c #DFDFDF",
"| 	c #CFCFCF",
"1 	c #D9D9D9",
"2 	c #B5B5B5",
"3 	c #000000",
"4 	c #010101",
"5 	c #0E0E0E",
"6 	c #0D0D0D",
"7 	c #111111",
"8 	c #E1E1E1",
"9 	c #E9E9E9",
"0 	c #090909",
"a 	c #E6E6E6",
"b 	c #EAEAEA",
"c 	c #D0D0D0",
"d 	c #EDEDED",
"e 	c #E0E0E0",
"f 	c #CBCBCB",
"g 	c #E1E1E3",
"h 	c #000002",
"i 	c #E6E6E8",
"j 	c #D6D6D6",
"k 	c #DBDBD9",
"l 	c #D3D2D0",
"m 	c #0A0907",
"n 	c #070602",
"o 	c #93928E",
"p 	c #E1E1DF",
"q 	c #E0E2E1",
"r 	c #D2D3D7",
"s 	c #000105",
"t 	c #D4D5D9",
"u 	c #EEEEF0",
"v 	c #E7E6E2",
"w 	c #030000",
"x 	c #89847E",
"y 	c #767269",
"z 	c #959891",
"A 	c #F0F6F2",
"B 	c #D5DAD6",
"C 	c #E1E5E4",
"D 	c #E8ECEB",
"E 	c #D9DDDE",
"F 	c #E3E7E8",
"G 	c #E4E5E7",
"H 	c #D8D9DB",
"I 	c #D1D2D6",
"J 	c #07080C",
"K 	c #030406",
"L 	c #010000",
"M 	c #040300",
"N 	c #060100",
"O 	c #BBB7AC",
"P 	c #989085",
"Q 	c #040000",
"R 	c #030600",
"S 	c #000300",
"T 	c #0C110B",
"U 	c #000500",
"V 	c #000100",
"W 	c #050908",
"X 	c #000102",
"Y 	c #D5D6D8",
"Z 	c #D0D1D5",
"` 	c #DADBDF",
" .	c #E6E8E7",
"..	c #D6D5D3",
"+.	c #E2E1DC",
"@.	c #DAD6CB",
"#.	c #8C8479",
"$.	c #0A0600",
"%.	c #919185",
"&.	c #E6E9DE",
"*.	c #E6E9E0",
"=.	c #D8DBD2",
"-.	c #E6E8E3",
";.	c #CBCDC8",
">.	c #EFF1EE",
",.	c #E8E8E8",
"'.	c #D3D4D6",
").	c #CFD0D4",
"!.	c #E4E6E5",
"~.	c #E8E7E5",
"{.	c #E5E4DF",
"].	c #060200",
"^.	c #CAC6BA",
"/.	c #7F776A",
"(.	c #0D0700",
"_.	c #030100",
":.	c #17180A",
"<.	c #A1A294",
"[.	c #E4E4D8",
"}.	c #DEDED4",
"|.	c #E8E7E2",
"1.	c #DEDDD9",
"2.	c #E5E4E2",
"3.	c #D0D1D3",
"4.	c #CDCED2",
"5.	c #DEDFE1",
"6.	c #CCCECD",
"7.	c #EAE9E5",
"8.	c #EEEEE6",
"9.	c #BBB7AB",
"0.	c #9A9383",
"a.	c #070000",
"b.	c #6F6A56",
"c.	c #3F3A26",
"d.	c #0E0800",
"e.	c #151105",
"f.	c #969289",
"g.	c #E8E5DE",
"h.	c #DAD7D2",
"i.	c #CDCED0",
"j.	c #CCCDD1",
"k.	c #181A19",
"l.	c #010100",
"m.	c #0C0800",
"n.	c #B8B5A6",
"o.	c #080100",
"p.	c #B7AF98",
"q.	c #787157",
"r.	c #0B0300",
"s.	c #8A826F",
"t.	c #706959",
"u.	c #100A00",
"v.	c #060000",
"w.	c #140F09",
"x.	c #050000",
"y.	c #CBCCCE",
"z.	c #CBCCD0",
"A.	c #DADCD9",
"B.	c #0B0A05",
"C.	c #6E6E64",
"D.	c #C4C1B0",
"E.	c #78715F",
"F.	c #A0977A",
"G.	c #908567",
"H.	c #130700",
"I.	c #BAAE96",
"J.	c #7B705C",
"K.	c #120900",
"L.	c #91897E",
"M.	c #6B645C",
"N.	c #CACBCD",
"O.	c #CACBCF",
"P.	c #000103",
"Q.	c #E7E9E8",
"R.	c #E6E8E5",
"S.	c #8F8F85",
"T.	c #BBB8A7",
"U.	c #B2AB98",
"V.	c #979076",
"W.	c #B8AD8D",
"X.	c #B4A785",
"Y.	c #8E8063",
"Z.	c #B2A489",
"`.	c #B4A997",
" +	c #A49B8C",
".+	c #91887F",
"++	c #C3C4C6",
"@+	c #EFF1EC",
"#+	c #A1A195",
"$+	c #040100",
"%+	c #B7B4A1",
"&+	c #C3BDA7",
"*+	c #BDB69A",
"=+	c #BBAE8C",
"-+	c #BEB08B",
";+	c #B5A685",
">+	c #B6A88B",
",+	c #ACA086",
"'+	c #C5BAA6",
")+	c #9E9584",
"!+	c #726A5F",
"~+	c #D1D2D4",
"{+	c #030504",
"]+	c #B8B9AB",
"^+	c #0C0900",
"/+	c #A4A28D",
"(+	c #B9B39D",
"_+	c #C2BB9F",
":+	c #C0B390",
"<+	c #C4B691",
"[+	c #BAAC89",
"}+	c #BFB292",
"|+	c #9E9278",
"1+	c #B2A791",
"2+	c #C2B9A8",
"3+	c #736B5E",
"4+	c #110A02",
"5+	c #B8B9BB",
"6+	c #BFC0C2",
"7+	c #EAECE9",
"8+	c #D9DCD5",
"9+	c #060600",
"0+	c #848577",
"a+	c #898675",
"b+	c #C7C5AE",
"c+	c #C3BDA5",
"d+	c #BCB598",
"e+	c #C8BB98",
"f+	c #BDAF8A",
"g+	c #BDAF8C",
"h+	c #BCAF8F",
"i+	c #AFA389",
"j+	c #B4A993",
"k+	c #B1A897",
"l+	c #564E41",
"m+	c #BBBCBE",
"n+	c #0E100F",
"o+	c #E0E2DF",
"p+	c #E7EAE3",
"q+	c #EDEDE3",
"r+	c #010200",
"s+	c #8D8A77",
"t+	c #B4B29B",
"u+	c #ADA78D",
"v+	c #C9C2A5",
"w+	c #C6BC98",
"x+	c #B6AA84",
"y+	c #C4B795",
"z+	c #ADA282",
"A+	c #BEB499",
"B+	c #867F6D",
"C+	c #423C2E",
"D+	c #0B0700",
"E+	c #BABBBD",
"F+	c #D5D7D4",
"G+	c #E6E9E2",
"H+	c #D8D8CC",
"I+	c #706D5A",
"J+	c #A9A78E",
"K+	c #BFBA9D",
"L+	c #BDB797",
"M+	c #BDB591",
"N+	c #BDB590",
"O+	c #C6BE9A",
"P+	c #ADA787",
"Q+	c #ABA48A",
"R+	c #A49E88",
"S+	c #888171",
"T+	c #221C10",
"U+	c #B9B4AE",
"V+	c #A6A7A9",
"W+	c #141615",
"X+	c #080A07",
"Y+	c #000200",
"Z+	c #17170B",
"`+	c #060400",
" @	c #8B8970",
".@	c #B8B396",
"+@	c #CEC9A9",
"@@	c #BDB793",
"#@	c #C4BE9A",
"$@	c #B5AF8D",
"%@	c #BBB698",
"&@	c #A29C82",
"*@	c #928D77",
"=@	c #847E6E",
"-@	c #CDCAC3",
";@	c #CED0CF",
">@	c #AFB1B0",
",@	c #BFC1BE",
"'@	c #B3B6AF",
")@	c #AEAEA2",
"!@	c #CFD0C0",
"~@	c #040200",
"{@	c #767559",
"]@	c #B7B295",
"^@	c #A6A181",
"/@	c #C1BD9A",
"(@	c #C0BC97",
"_@	c #B1AC8C",
":@	c #B6B295",
"<@	c #ACA88F",
"[@	c #86846F",
"}@	c #474435",
"|@	c #19170B",
"1@	c #B4B1AA",
"2@	c #181818",
". . . . . . . . . . . . . . . . . . . . . . . . . ",
"+ @ @ @ @ @ @ @ @ @ @ @ @ @ @ @ @ @ # $ $ $ $ $ % ",
"& * * * * * * * * * * * * * * * * * = - - - - - ; ",
"> , , , , , , , , , , , , , , , , , ' ) ) ) ) ) ! ",
"~ { ] { ^ / ( ^ _ : < [ } } } } } } } } } | { { ~ ",
"~ { 1 2 3 4 3 3 4 3 5 6 3 4 4 4 4 4 4 4 4 7 { { ~ ",
"~ { 8 9 0 8 a b 8 _ c : d e e e e e e e e 3 { { ~ ",
"~ { f g h i j b k l m n o p q q q q q q 8 3 { { ~ ",
"~ { { r s t u ( v w x y w z A B C D E F G h { { ~ ",
"~ { H I s J K L M N O P Q R S T U V W X h h { { ~ ",
"~ { Y Z s `  ...+.Q @.#.$.%.&.*.=.-.;.>.,.3 { { ~ ",
"~ { '.).s G !.~.{.].^./.(._.:.<.[.}.|.1.2.L { { ~ ",
"~ { 3.4.s 5.6.7.8.Q 9.0.a.b.c.N d.e.f.g.h.Q { { ~ ",
"~ { i.j.s h k.L l.m.n.0.o.p.q.r.s.t.u.v.w.x.{ { ~ ",
"~ { y.z.s 3.A.B.C.Q D.E.r.F.G.H.I.J.K.L.M.x.{ { ~ ",
"~ { N.O.P.Q.R.L S.Q T.U.V.W.X.Y.Z.I.`. +.+a.{ { ~ ",
"~ { y.++h q @+l.#+$+%+&+*+=+-+;+>+,+'+)+!+v.{ { ~ ",
"~ { ~+3.{+V V l.]+^+/+(+_+:+<+[+}+|+1+2+3+4+{ { ~ ",
"~ { 5+6+V 7+8+9+0+a+b+c+d+e+f+g+h+i+j+k+l+v.{ { ~ ",
"~ { m+3.n+o+p+q+r+s+t+u+v+w+x+y+z+A+p.B+C+D+{ { ~ ",
"~ { y.E+V F+G+H+r+I+J+K+L+M+N+O+P+Q+R+S+T+U+{ { ~ ",
"~ { ++V+W+X+Y+Z+r+`+ @.@+@@@#@$@%@&@*@=@Q -@{ { ~ ",
"~ { 6+;@>@,@'@)@!@~@{@]@^@/@(@_@:@<@[@}@|@1@{ { ~ ",
"2@7 7 7 7 7 7 7 7 7 7 7 7 7 7 7 7 7 7 7 7 7 7 7 2@",
". . . . . . . . . . . . . . . . . . . . . . . . . "};
