/* XPM */
static char * s_xpm[] = {
"24 24 2 1",
" 	c None",
".	c #291BE5",
"                        ",
"                        ",
"                        ",
"                        ",
"         .......        ",
"        ...   ...       ",
"       ...     ..       ",
"      ....     ..       ",
"      ....      .       ",
"      .....             ",
"      ......            ",
"       .......          ",
"        ........        ",
"          .......       ",
"            .....       ",
"             .....      ",
"      .       ....      ",
"      ..      ....      ",
"      ..      ...       ",
"      ...    ....       ",
"       ........         ",
"                        ",
"                        ",
"                        "};
