/* XPM */
static char * footnote3_xpm[] = {
"35 35 6 1",
" 	c None",
".	c #110506",
"+	c #D8BBA2",
"@	c #101635",
"#	c #070300",
"$	c #0C0600",
"                                   ",
"                                   ",
"                                   ",
"                                   ",
"                                   ",
"                                   ",
"                                   ",
"       .+ + + + +.                 ",
"       .+++++++++.                 ",
"       .+++++++++.                 ",
"       .+++++++++.                 ",
"       .+++++++++.                 ",
"       .+++++++++.                 ",
"       .+++++++++.                 ",
"       .++++++++@                  ",
"        @+++++++@                  ",
"        @+++++++@###########       ",
"        @++++++++++++++++++#       ",
"        @++++++++++++++++++#       ",
"        @++++++++++++++@@@@#       ",
"        @+++++++++++++++++$#       ",
"       @+++++++++++++++@@@#        ",
"      @++++++++++++++++++$#        ",
"      @++++++++++++++++@@@#        ",
"      @++++++++++++++++++$#        ",
"       @++@@@@@@+++++++@@@#        ",
"        @@      @@++++++$##        ",
"                  @@@@@@@          ",
"                                   ",
"                                   ",
"                                   ",
"                                   ",
"                                   ",
"                                   ",
"                                   "};
