/* XPM */
static char * gnome_fontsel_xpm[] = {
"48 48 343 2",
"  	c None",
". 	c #000000",
"+ 	c #3A3A3A",
"@ 	c #424242",
"# 	c #494949",
"$ 	c #143131",
"% 	c #585E53",
"& 	c #0E2122",
"* 	c #4A4A4A",
"= 	c #1B2F2D",
"- 	c #706E5E",
"; 	c #A48A67",
"> 	c #343730",
", 	c #2E2E2E",
"' 	c #574E3A",
") 	c #C8B394",
"! 	c #BA9B72",
"~ 	c #181F1C",
"{ 	c #3D3D3D",
"] 	c #2C2217",
"^ 	c #A38867",
"/ 	c #AB8B66",
"( 	c #836748",
"_ 	c #4A4C3E",
": 	c #AF9472",
"< 	c #D9B689",
"[ 	c #987A56",
"} 	c #4D4636",
"| 	c #3E473C",
"1 	c #B39D7F",
"2 	c #D9B487",
"3 	c #AD8D67",
"4 	c #876D4C",
"5 	c #2A2A2A",
"6 	c #5F5F5F",
"7 	c #81755C",
"8 	c #D6BA95",
"9 	c #BF9D77",
"0 	c #8F7250",
"a 	c #414036",
"b 	c #0B1212",
"c 	c #ACACAC",
"d 	c #565656",
"e 	c #C1A686",
"f 	c #D1B188",
"g 	c #9A7C56",
"h 	c #766248",
"i 	c #0E1717",
"j 	c #3D443A",
"k 	c #B49D7E",
"l 	c #DBBB93",
"m 	c #BE9D73",
"n 	c #7F6545",
"o 	c #7E6A4E",
"p 	c #D4B48D",
"q 	c #CEAC82",
"r 	c #9A805C",
"s 	c #372B1E",
"t 	c #A5A5A5",
"u 	c #504F4D",
"v 	c #CBAF8B",
"w 	c #DABA90",
"x 	c #A68662",
"y 	c #635741",
"z 	c #100C09",
"A 	c #A1A1A1",
"B 	c #6D6D6D",
"C 	c #5E5E5E",
"D 	c #404337",
"E 	c #C1AB8E",
"F 	c #DDBF99",
"G 	c #B5956C",
"H 	c #886C4A",
"I 	c #5B5C4B",
"J 	c #101010",
"K 	c #0F0F0F",
"L 	c #4B4B4B",
"M 	c #485549",
"N 	c #988564",
"O 	c #555555",
"P 	c #A19779",
"Q 	c #DEC4A1",
"R 	c #C9A67A",
"S 	c #A2845D",
"T 	c #615640",
"U 	c #6B6B6B",
"V 	c #201B14",
"W 	c #312A1F",
"X 	c #252017",
"Y 	c #0E0C0A",
"Z 	c #6C6C6C",
"` 	c #988160",
" .	c #BCA783",
"..	c #8E7C60",
"+.	c #DBBC92",
"@.	c #DCB88C",
"#.	c #BA996F",
"$.	c #7D6548",
"%.	c #1B1C14",
"&.	c #505050",
"*.	c #1E1812",
"=.	c #3C3C3C",
"-.	c #61523E",
";.	c #5B4A32",
">.	c #1C1C17",
",.	c #6C573D",
"'.	c #C1A886",
").	c #A99881",
"!.	c #B49A77",
"~.	c #DFC2A1",
"{.	c #B0916C",
"].	c #C4A077",
"^.	c #483A29",
"/.	c #211C13",
"(.	c #67543E",
"_.	c #94795A",
":.	c #957A5B",
"<.	c #54422E",
"[.	c #3F3323",
"}.	c #B39E84",
"|.	c #C7B69F",
"1.	c #B6A28A",
"2.	c #E5CDAF",
"3.	c #DABF9F",
"4.	c #AE8F68",
"5.	c #BC996F",
"6.	c #B6A07F",
"7.	c #B29570",
"8.	c #84735D",
"9.	c #76624C",
"0.	c #635038",
"a.	c #342C21",
"b.	c #1F211D",
"c.	c #5B4831",
"d.	c #C2AB8B",
"e.	c #BCAC97",
"f.	c #D9BC97",
"g.	c #E2CCAD",
"h.	c #BC9E77",
"i.	c #B09069",
"j.	c #D4B88D",
"k.	c #DFC098",
"l.	c #E1C4A0",
"m.	c #877155",
"n.	c #4B3C27",
"o.	c #292519",
"p.	c #282A25",
"q.	c #443929",
"r.	c #313D39",
"s.	c #545454",
"t.	c #87745C",
"u.	c #DBCEBE",
"v.	c #C0A787",
"w.	c #DBB68A",
"x.	c #E8D3BB",
"y.	c #C7A57A",
"z.	c #C3A177",
"A.	c #E0C7A7",
"B.	c #CFAF89",
"C.	c #CDAA7E",
"D.	c #AF8E67",
"E.	c #3C2F20",
"F.	c #525249",
"G.	c #87755A",
"H.	c #816E53",
"I.	c #747474",
"J.	c #A99276",
"K.	c #D3C5B0",
"L.	c #E0C4A2",
"M.	c #E6D2B7",
"N.	c #D5B184",
"O.	c #DBB88E",
"P.	c #E7D7C3",
"Q.	c #B3936C",
"R.	c #C6A57E",
"S.	c #D6B68E",
"T.	c #CFAD84",
"U.	c #85725D",
"V.	c #6A563F",
"W.	c #483D2C",
"X.	c #18201F",
"Y.	c #636363",
"Z.	c #7A7A7A",
"`.	c #AB977F",
" +	c #D1B796",
".+	c #E8D3B7",
"++	c #EBDCC8",
"@+	c #E6CCAC",
"#+	c #DBB688",
"$+	c #E7D0B3",
"%+	c #D0B697",
"&+	c #BD9D72",
"*+	c #E1C3A0",
"=+	c #DAB588",
"-+	c #CEAA7E",
";+	c #9E805C",
">+	c #302B1F",
",+	c #12100C",
"'+	c #26251F",
")+	c #1F2725",
"!+	c #786645",
"~+	c #B6A084",
"{+	c #D9B78D",
"]+	c #EFE0CD",
"^+	c #E4CBAB",
"/+	c #E3C6A3",
"(+	c #E7D1B4",
"_+	c #DEBC94",
":+	c #DAB587",
"<+	c #D4B186",
"[+	c #E3C9AB",
"}+	c #C1A47F",
"|+	c #A08565",
"1+	c #897B63",
"2+	c #33372D",
"3+	c #32291D",
"4+	c #3C3528",
"5+	c #1E201A",
"6+	c #959595",
"7+	c #8E7D58",
"8+	c #DCC09E",
"9+	c #E8D0B3",
"0+	c #EEDDCA",
"a+	c #E2C6A2",
"b+	c #E9D4BA",
"c+	c #E0C39E",
"d+	c #DFBF97",
"e+	c #E7D0B5",
"f+	c #C8AB83",
"g+	c #AD8F6A",
"h+	c #CFB18D",
"i+	c #D2AF83",
"j+	c #9B8160",
"k+	c #7B6245",
"l+	c #71674F",
"m+	c #1F241F",
"n+	c #584E2F",
"o+	c #D9BF97",
"p+	c #E5CBAA",
"q+	c #ECDAC3",
"r+	c #E7D0B4",
"s+	c #E4C9A7",
"t+	c #E4CAA8",
"u+	c #DFC19A",
"v+	c #E6CDAF",
"w+	c #D4B083",
"x+	c #C2A076",
"y+	c #CDAB7F",
"z+	c #968263",
"A+	c #8A7050",
"B+	c #7A6244",
"C+	c #4A4F45",
"D+	c #534A2D",
"E+	c #E9D2B6",
"F+	c #E2C7A3",
"G+	c #DABC91",
"H+	c #DEBE95",
"I+	c #E5D3B7",
"J+	c #D6B285",
"K+	c #D6B184",
"L+	c #BB9970",
"M+	c #B5956D",
"N+	c #B0906B",
"O+	c #7F6648",
"P+	c #70593F",
"Q+	c #5C5643",
"R+	c #A8975A",
"S+	c #B59C68",
"T+	c #E8D2B5",
"U+	c #E7D0B2",
"V+	c #DBB98D",
"W+	c #E2C9A8",
"X+	c #DCC3A2",
"Y+	c #D9B486",
"Z+	c #C09D73",
"`+	c #D0AE82",
" @	c #A0835F",
".@	c #9E8360",
"+@	c #907654",
"@@	c #624E37",
"#@	c #625843",
"$@	c #384C4A",
"%@	c #AB8E69",
"&@	c #E2C5A1",
"*@	c #E7CEB0",
"=@	c #E0C19A",
"-@	c #D7B385",
";@	c #BFA17C",
">@	c #DCB98D",
",@	c #BF9D73",
"'@	c #D0AC7F",
")@	c #9F7E59",
"!@	c #927957",
"~@	c #816A4B",
"{@	c #876F4F",
"]@	c #58432F",
"^@	c #2D2316",
"/@	c #E5CCAD",
"(@	c #D2AE81",
"_@	c #AC8B65",
":@	c #745D42",
"<@	c #80694C",
"[@	c #7D6648",
"}@	c #57442E",
"|@	c #19140C",
"1@	c #010100",
"2@	c #1D1812",
"3@	c #E1C29C",
"4@	c #D6B284",
"5@	c #B7956C",
"6@	c #896E4C",
"7@	c #866B4C",
"8@	c #816949",
"9@	c #6E583F",
"0@	c #31261A",
"a@	c #1C160E",
"b@	c #725F47",
"c@	c #E2C5A0",
"d@	c #DDBB91",
"e@	c #CCA97D",
"f@	c #B5946C",
"g@	c #947857",
"h@	c #876D4D",
"i@	c #3E3122",
"j@	c #372C1F",
"k@	c #3B2E20",
"l@	c #33281B",
"m@	c #AC8F6A",
"n@	c #DEBD94",
"o@	c #C5A277",
"p@	c #987A57",
"q@	c #957754",
"r@	c #5E4A33",
"s@	c #1F1810",
"t@	c #DEBC92",
"u@	c #B29169",
"v@	c #9A7C58",
"w@	c #7C6346",
"x@	c #DBB789",
"y@	c #D1AD80",
"z@	c #B9976E",
"A@	c #846949",
"B@	c #382C1E",
"                                                                                                ",
"                                                                                                ",
"                                                                                                ",
"                                                                                                ",
"                                                                                                ",
"                                                                                                ",
"              . . . . . . . . . .                         . . . . . . . . . . .                 ",
"                  . . .       . .                           . . . .       . .                   ",
"                  . .         . .                           . . .         . .                   ",
"                  . .                                       . . .           .                   ",
"                . . .       .                             + @ # .       .                       ",
"                . . .     . .                             $ % & *     . .                       ",
"                . . . . . . .                           = - ; > , . . . .                       ",
"                . .       .                             ' ) ! ~ {     . .                       ",
"                . .       .                           ] ^ / ( .       .                         ",
"              . . .                                 _ : < [ } @                                 ",
"              . . .                               | 1 2 3 4 5 .                                 ",
"              . . .                             6 7 8 9 0 a b .                                 ",
"            . . . . .                         c d e f g h i . . .                               ",
"                                              j k l m n                                         ",
"                                            d o p q r s                                         ",
"                                          t u v w x y z A B                                     ",
"                                      C C D E F G H I . @ J K L                                 ",
"                                    M N O P Q R S T U . V W X Y                                 ",
"                                  Z `  ...+.@.#.$.%.&.*.=.-.;.>.                                ",
"            . . . . . . . . . .   ,.'.).!.~.{.].^./.(._.:.<.[.                                  ",
"            . . . . . . . . . .   }.|.1.2.3.4.5.6.7.8.9.0.a.b.                                  ",
"                .           . . c.d.e.f.g.h.i.j.k.l.m.n.o.p.q.r.                                ",
"              . .       .   . s.t.u.v.w.x.y.z.A.B.C.D.E.F.G.H.O                                 ",
"              . .     . .     I.J.K.L.x.M.N.O.P.Q.R.S.T.U.V.W.X.Y.                              ",
"              . . . . . .     Z.`. +.+++@+#+$+%+&+*+=+-+;+>+,+'+)+                              ",
"              . .   . .       !+~+{+]+^+/+(+_+:+<+[+}+|+1+2+3+4+5+                              ",
"            . .       .     6+7+8+9+0+a+b+c+#+d+e+f+g+h+i+j+k+l+m+                              ",
"            . .             n+o+p+q+r+s+t+#+u+v+#+w+x+y+z+A+B+C+                                ",
"            . .             D+#+E+.+F+d+G+H+I+J+K+L+M+N+O+P+Q+                                  ",
"        . . . . . .       R+S+#+T+U+V+#+W+X+Y+Z+`+ @.@+@@@#@$@                                  ",
"        . . . . . .         %@&@*@=@-@;@>@,@'@)@!@~@{@]@^@                                      ",
"                          . #+/@&@#+#+#+(@_@A+:@<@[@}@|@1@                                      ",
"                          2@3@/+#+#+#+4@5@6@7@8@9@0@a@                                          ",
"                          b@c@d@#+#+e@f@g@h@i@j@k@l@                                            ",
"                          m@d+n@#+#+o@p@q@r@s@                                                  ",
"                            @.t@#+#+u@v@w@                                                      ",
"                            x@t@#+y@z@A@B@                                                      ",
"                                                                                                ",
"                                                                                                ",
"                                                                                                ",
"                                                                                                ",
"                                                                                                "};
