/* XPM */
static char *tangoBible__[] = {
/* columns rows colors chars-per-pixel */
"32 32 147 2",
"   c #360000",
".  c #3C0000",
"X  c #281717",
"o  c #361F1F",
"O  c #2E2020",
"+  c #410000",
"@  c #4B0000",
"#  c #460A0A",
"$  c #540000",
"%  c #5C0000",
"&  c #630000",
"*  c #6D0000",
"=  c #750000",
"-  c #7C0000",
";  c #740909",
":  c #493721",
">  c #723D2B",
",  c #6C3434",
"<  c #6C3A31",
"1  c #783737",
"2  c #723A3A",
"3  c #7F3C3C",
"4  c #6E4026",
"5  c #764242",
"6  c #7B4B4B",
"7  c #716B67",
"8  c #840000",
"9  c #8C0000",
"0  c #830B0B",
"q  c #950000",
"w  c #990000",
"e  c #900C0C",
"r  c #9B1010",
"t  c #A60000",
"y  c #AB0000",
"u  c #A90D0D",
"i  c #B30000",
"p  c #BD0000",
"a  c #A01C1C",
"s  c #8A2626",
"d  c #9A2C2C",
"f  c #8E3535",
"g  c #8C3B3B",
"h  c #943F3F",
"j  c #A42424",
"k  c #AF2525",
"l  c #B42B2B",
"z  c #A73737",
"x  c #B53333",
"c  c #BC3C3C",
"v  c #C30000",
"b  c #C90000",
"n  c #C10909",
"m  c #C43535",
"M  c #834141",
"N  c #8A4141",
"B  c #814C4C",
"V  c #894B4B",
"C  c #974040",
"Z  c #944B4B",
"A  c #9F4B4B",
"S  c #865757",
"D  c #865959",
"F  c #8A5E5E",
"G  c #935757",
"H  c #9C5656",
"J  c #A64B4B",
"K  c #B54040",
"L  c #BD4D4D",
"P  c #A35656",
"I  c #AA5757",
"U  c #A45A5A",
"Y  c #AB5858",
"T  c #B65252",
"R  c #816B4B",
"E  c #926666",
"W  c #9A6464",
"Q  c #946B6B",
"!  c #9D7676",
"~  c #AC6161",
"^  c #B56363",
"/  c #B36D6D",
"(  c #BF6D6D",
")  c #A37070",
"_  c #AC7474",
"`  c #A27F7F",
"'  c #B57C7C",
"]  c #BB7979",
"[  c #CA4545",
"{  c #C95858",
"}  c #C46262",
"|  c #C56D6D",
" . c #C96D6D",
".. c #CC7272",
"X. c #CC7979",
"o. c #D27979",
"O. c #A1804C",
"+. c #8E816D",
"@. c #A48585",
"#. c #AD8F8F",
"$. c #B48080",
"%. c #BA8383",
"&. c #B98E8E",
"*. c #AB9191",
"=. c #B49595",
"-. c #B59B9B",
";. c #BDA1A1",
":. c #BFAEAE",
">. c #C38383",
",. c #CF8383",
"<. c #CA8F8F",
"1. c #D18282",
"2. c #D58F8F",
"3. c #D88F8F",
"4. c #C29393",
"5. c #C39E9E",
"6. c #D09696",
"7. c #D19A9A",
"8. c #DB9D9D",
"9. c #C4A1A1",
"0. c #CAA6A6",
"q. c #C1AAAA",
"w. c #CEACAC",
"e. c #DDA5A5",
"r. c #D0ADAD",
"t. c #C7B2B2",
"y. c #CCB5B5",
"u. c #CBBABA",
"i. c #D5B7B7",
"p. c #D7B9B9",
"a. c #E0A6A6",
"s. c #E2B1B1",
"d. c #EDC78B",
"f. c #F4DEBA",
"g. c #D3C7C7",
"h. c #DDC7C7",
"j. c #D5C8C8",
"k. c #DDCCCC",
"l. c #DDD4D4",
"z. c #E6D6D6",
"x. c #E3DBDB",
"c. c #EDE4E4",
"v. c #EFE9E9",
"b. c #F0E6E6",
"n. c #FBF4EA",
"m. c #FFFFFF",
"M. c None",
/* pixels */
"M.M.M.M.M.M.M.M.M.M.M.M.M.M.M.M.M.M.M.M.M.M.M.M.M.M.M.M.M.M.M.M.",
"M.M.M.M.M.M.M.M.M.M.M.M.M.M.M.M.M.M.M.M.M.M.M.M.M.M.M.M.M.M.M.M.",
"M.M.M.M.M.M.M.M.M.M.M.M.M.M.M.M.M.M.M.M.M.M.M.M.M.M.M.M.M.M.M.M.",
"M.M.M.M.M.M.M.M.M.M.M.M.M.M.M.M.M.M.M.M.M.M.M.M.M.M.M.M.M.M.M.M.",
"M.M.M.M.M.M.M.M.M.M.M.M.M.M.M.M.M.M.M.M.M.M.M.M.M.M.M.M.M.M.M.M.",
"M.M.M.M.M.M.M.M.M.M.M.M.M.M.M.m.m.m.M.M.M.M.M.M.M.M.M.M.M.M.M.M.",
"M.M.M.M.M.M.M.M.S Q Q Q Q ! -.t.t.t.;.@.Q Q Q Q E M.M.M.M.M.M.M.",
"M.M.M.M.M.M.M.D [ ..X.X.X.1.8.s.s.s.a.3.o.o.o.o.H M.M.M.M.M.M.M.",
"M.M.M.M.M.M.M.M Y Q #.#.#.=.q.l.x.x.u.5.&.&.&.$.{ F M.M.M.M.M.M.",
"M.M.M.M.M.M.M.j E Q -.;.;.;.t.m.m.m.j.0.9.9.9._  .1 M.M.M.M.M.M.",
"M.M.M.M.M.M., l 5 ` *.u.u.u.g.m.m.m.x.u.u.u.q.' ^ d 6 M.M.M.M.M.",
"M.M.M.M.M.M.g f , ! :.m.m.m.m.m.m.m.m.m.m.m.x.&.h m 2 M.M.M.M.M.",
"M.M.M.M.M.# c 5 5 B g.m.m.m.m.m.m.m.m.m.m.m.m.) C K N M.M.M.M.M.",
"M.M.M.M.M.@ a 6 B B 6 6 6 6 @.m.m.m.k.B V V V Z A J x $ M.M.M.M.",
"M.M.M.M.M.8 & 3 H H P P H H -.m.m.m.v.G P P P P I T n $ M.M.M.M.",
"M.M.M.M.. i * ; U ~ ~ ~ ~ ~ y.m.m.m.m.W ~ ~ ~ ^ } k i - M.M.M.M.",
"M.M.M.M.% q * = s / / / / / k.m.m.m.m.' ( | | | L t t p $ M.M.M.",
"M.M.M.. w = = = = P ] ] ] ' c.m.m.m.m.4.X.X.X...u t y p % M.M.M.",
"M.M.M.+ i = = = - 0 ] >.>.%.m.m.m.m.m.0.,.1.1.x t y y i q $ M.M.",
"M.M.M.* 9 = = - - - d <.<.4.m.m.m.m.m.i.2.2.} t y y y i v $ M.M.",
"M.M.. y = = - - - 8 8 ^ 7.0.m.m.m.m.m.h.8.3.u y y y i i v = M.M.",
"M.M.@ t = - - - 8 8 8 e 6.p.m.m.m.m.m.z.e.c t y y i i i p y $ M.",
"M.. 8 8 - - - 8 8 8 9 9 z h.m.m.m.m.m.b.X.t y y i i i p p b $ M.",
"M.. i - - - 8 8 8 9 9 9 q _ w.w.w.w.r.5.r y y i i i p p p v 9 $ ",
"M.% v p p p p p p p v v v v v v v v v v v v v b b b b b b b v $ ",
".   . . . . . . . . . . . . . . . . . . . . . . . . . . . . . . ",
". : O.O.O.O.O.O.O.O.O.O.O.O.O.O.O.O.O.O.O.O.O.O.O.O.O.O.O.O.4 M.",
". R d.d.d.d.d.d.d.d.d.d.d.d.d.d.d.d.d.d.d.d.d.d.d.d.d.d.d.d.> M.",
"  +.f.f.f.f.f.f.f.f.f.f.f.f.f.f.f.f.f.f.f.f.f.f.f.f.f.f.f.f.< M.",
". 7 n.n.n.n.n.n.n.n.n.n.n.n.n.n.n.n.n.n.n.n.n.n.n.n.n.n.n.n.Q M.",
". X O O O O O O O O O O O O O O O O O O O O O O O O O O O O o . ",
"M.M.. . . . . . . . . . . . . . . . . . . . . . . . . . . . . M."
};
