/* XPM */
static char *bible__[] = {
/* columns rows colors chars-per-pixel */
"32 32 146 2",
"   c #3E0000",
".  c #440101",
"X  c #4B0000",
"o  c #460E0C",
"O  c #530000",
"+  c #5C0000",
"@  c #4D1412",
"#  c #630000",
"$  c #6C0000",
"%  c #680C0C",
"&  c #730000",
"*  c #7B0000",
"=  c #7C0E0E",
"-  c #642828",
";  c #613A3A",
":  c #773030",
">  c #7E3A3A",
",  c #744343",
"<  c #714D4D",
"1  c #830000",
"2  c #8B0000",
"3  c #930000",
"4  c #9B0000",
"5  c #8F1111",
"6  c #A40000",
"7  c #AC0000",
"8  c #A90A0A",
"9  c #B40000",
"0  c #BC0000",
"q  c #A21313",
"w  c #AF1111",
"e  c #AD1E1E",
"r  c #B41414",
"t  c #BB1717",
"y  c #802828",
"u  c #823939",
"i  c #973434",
"p  c #A82F2F",
"a  c #B22727",
"s  c #A63333",
"d  c #AC3C3C",
"f  c #B73434",
"g  c #BC3434",
"h  c #B03A3A",
"j  c #C40000",
"k  c #CB0000",
"l  c #D40000",
"z  c #DC0000",
"x  c #E10000",
"c  c #C23232",
"v  c #8D4545",
"b  c #914747",
"n  c #944E4E",
"m  c #9C4E4E",
"M  c #855151",
"N  c #9C5151",
"B  c #945B5B",
"V  c #B64545",
"C  c #BA4747",
"Z  c #BF4949",
"A  c #A25151",
"S  c #AC5454",
"D  c #A45C5C",
"F  c #AB5C5C",
"G  c #B45252",
"H  c #BC5252",
"J  c #BC5D5D",
"K  c #966363",
"L  c #9E6C6C",
"P  c #917272",
"I  c #A16565",
"U  c #AD6767",
"Y  c #B36666",
"T  c #B26D6D",
"R  c #A47575",
"E  c #B67272",
"W  c #BA7272",
"Q  c #BE7E7E",
"!  c #C34141",
"~  c #CB4C4C",
"^  c #C25C5C",
"/  c #C46767",
"(  c #C96464",
")  c #C27474",
"_  c #CB7272",
"`  c #C27D7D",
"'  c #CC7C7C",
"]  c #D37C7C",
"[  c #9D9075",
"{  c #A09377",
"}  c #998383",
"|  c #998C8C",
" . c #AF8686",
".. c #B18585",
"X. c #BF8686",
"o. c #B88D8D",
"O. c #A79F9F",
"+. c #AC9F9F",
"@. c #BB9494",
"#. c #B49F9F",
"$. c #BC9D9D",
"%. c #BEA0A0",
"&. c #C18585",
"*. c #CA8686",
"=. c #C78888",
"-. c #CA8A8A",
";. c #D68383",
":. c #D58A8A",
">. c #C39D9D",
",. c #CC9C9C",
"<. c #D09494",
"1. c #DC9494",
"2. c #D49F9F",
"3. c #DA9F9F",
"4. c #E09F9F",
"5. c #C3A1A1",
"6. c #CBA3A3",
"7. c #C8A9A9",
"8. c #D4A5A5",
"9. c #DCA4A4",
"0. c #D2AEAE",
"q. c #D4B4B4",
"w. c #DABDBD",
"e. c #E3A3A3",
"r. c #E1B6B6",
"t. c #E2BCBC",
"y. c #FBE3BF",
"u. c #DBC2C2",
"i. c #DFC9C9",
"p. c #E1CACA",
"a. c #EBC9C9",
"s. c #E5D4D4",
"d. c #EAD2D2",
"f. c #EBDADA",
"g. c #F3DBDB",
"h. c #F7E1CD",
"j. c #FFEDC8",
"k. c #FFF4DE",
"l. c #F2E3E3",
"z. c #F5EDED",
"x. c #F8E8E8",
"c. c #FDF6EE",
"v. c #FAF4F4",
"b. c #FFFBF3",
"n. c #FFFFFF",
"m. c None",
/* pixels */
"m.m.m.m.m.m.m.m.m.m.m.m.m.m.m.m.m.m.m.m.m.m.m.m.m.m.m.m.m.m.m.m.",
"m.m.m.m.m.m.m.m.m.m.m.m.m.m.m.m.m.m.m.m.m.m.m.m.m.m.m.m.m.m.m.m.",
"m.m.m.m.m.m.m.m.m.m.m.m.m.m.m.m.m.m.m.m.m.m.m.m.m.m.m.m.m.m.m.m.",
"m.m.m.m.m.m.m.m.m.m.m.m.m.m.m.m.m.m.m.m.m.m.m.m.m.m.m.m.m.m.m.m.",
"m.m.m.m.m.m.m.m.m.m.m.m.m.m.m.n.n.n.m.m.m.m.m.m.m.m.m.m.m.m.m.m.",
"m.m.m.m.m.m.m.m.m.m.m.m.m.m.n.n.n.n.n.m.m.m.m.m.m.m.m.m.m.m.m.m.",
"m.m.m.m.m.m.m.m.P %.%.5.5.7.u.s.s.s.p.q.6.6.6.6.,.m.m.m.m.m.m.m.",
"m.m.m.m.m.m.m.} M R  .....o.7.w.u.u.q.,.X.&.&.&.S m.m.m.m.m.m.m.",
"m.m.m.m.m.m.m.; K L @.$.>.>.0.v.n.n.p.6.,.,.,.` Y ) m.m.m.m.m.m.",
"m.m.m.m.m.m.m.- B R @.7.7.7.q.n.n.n.s.0.8.8.8.` ) s m.m.m.m.m.m.",
"m.m.m.m.m.m.< : u ..6.z.z.z.v.n.n.n.b.z.z.z.d.*.G p m.m.m.m.m.m.",
"m.m.m.m.m.m., u u I i.n.n.n.n.n.n.n.n.n.n.n.v.*.d h H m.m.m.m.m.",
"m.m.m.m.m.m.> v v b 6.w.w.w.f.n.n.n.v.t.t.t.t.J V V C m.m.m.m.m.",
"m.m.m.m.m.. % n N N N N A A 8.n.n.n.x.G G G G H H H a m.m.m.m.m.",
"m.m.m.m.m.O # y D D D D F F w.n.n.n.n.J J J J ^ ^ Z 7 7 m.m.m.m.",
"m.m.m.m.. # $ $ m U U Y Y Y d.n.n.n.n.) / / / ( ( w 7 7 m.m.m.m.",
"m.m.m.m.O $ $ & = T E E W W l.n.n.n.n.:._ _ _ _ g 7 9 9 m.m.m.m.",
"m.m.m.m.# $ & & * i Q ` ` ` v.n.n.n.n.9.' ] ] ( 7 9 9 9 0 m.m.m.",
"m.m.m.O $ & & * * 1 Y =.=.-.n.n.n.n.n.r.:.:.;.r 9 9 0 0 0 m.m.m.",
"m.m.m.# & & * * 1 1 5 -.<.8.n.n.n.n.n.a.1.1.! 9 9 0 0 j j j m.m.",
"m.m.m.& & * * 1 1 2 2 d 2.r.n.n.n.n.n.g.4.] 9 9 0 0 j j j k m.m.",
"m.m.+ * * * 1 1 2 2 2 3 ' a.n.n.n.n.n.x.e.t 9 0 0 j j k k k m.m.",
"m.m.& * 1 1 1 2 2 3 3 3 q d.n.n.n.n.n.v.~ 0 0 0 j j k k k l l m.",
"m.# * 1 1 1 2 2 3 3 4 4 4 e f g g g c c 0 0 0 j j k k l l l z m.",
"m.& 1 1 2 2 2 3 3 4 4 4 6 6 7 7 9 9 9 0 0 j j j k k l l l z z x ",
"O . . . . . X X O O + + + # # $ $ $ & & * * 1 1 1 2 2 3 3 4 4 k ",
"  [ { { { { { { { { { { { { { { { { { { { { { { { { { { { { { m.",
"o j.j.j.j.j.j.j.j.j.j.j.j.j.j.j.j.j.j.j.j.j.j.j.j.j.j.j.j.j.y.m.",
"@ k.k.k.k.k.k.k.k.k.k.k.k.k.k.k.k.k.k.k.k.k.k.k.k.k.k.k.k.k.h.m.",
". b.b.b.b.b.b.b.b.b.b.b.b.b.b.b.b.b.b.b.b.b.b.b.b.b.b.b.b.b.c.m.",
". | O.O.+.+.+.#.#.#.#.#.$.$.$.>.>.>.>.>.,.,.,.,.2.2.2.2.3.3.3.8 ",
"m.X O + # # $ $ & & * * 1 1 2 2 3 3 4 4 6 6 7 7 9 9 0 0 j j k m."
};
