/* XPM */
static char * image[] = 
{
"32 32 9 1",
"A c #000000",
"B c #00007F",
"C c #7F7F7F",
"D c #00FFFF",
"E c #BFBFBF",
"F c #FCFCFC",
"G c none",
"H c #000000",
"I c #FFFFFF",
"GGGGGGGGGGGGGGGGGGGGGGGGGGGGGGGG",
"GGGGGGGGGGGGGGGGGGGGGGGGGGGGGGGG",
"GGGGGGGGGGGGGGGGGGGGGGGGGGGGGGGG",
"GGGGBBBBBBBBBBBBBBBBBBBBBBBBBBGG",
"GGGGBBBBBBBBBBBBBBBBBBBBBBBBBBGG",
"GGGGBBBBBBBBBBBBBBBBBBBBBBBBBBGG",
"GGGGBBBBBBBBBBBBBBBBBBBBBBBBBBGG",
"GGGGAGGGGGGGGGGGGGGGGGGGGGGGGAGG",
"GGGGAGGGGGGGGGGGGGGGGGGGGGGGGAGG",
"GGGGAGGGGGGGGGGGGGGGGGGGGGGGGAGG",
"GGGGAGGGGGCCCCCCCCGGCCCCGGGGGAGG",
"GGGGAGGGGGGGGGGGGGGGGGGGGGGGGAGG",
"GGGGAGGGGGCCCCCCCCCCCGGGGGGGGAGG",
"GGGGAGGGGGGGGGGGGGGGGGGGGGGGGAGG",
"GGGGAGGGGGCCCCCGGCCCCCCCGGGGGAGG",
"GGGGAGGGGGGGGGGGGGGGGGGGGGGGGAGG",
"GGGGAGGGGAAACCCCCGGCCCGGGGGGGAGG",
"GGGGAGGGAGGGAGGGGGGGGGAAGGGGGAGG",
"GGGGAGGAGGCCACCGGGCCCACCAGGGGAGG",
"GGGGAGAGGGGGAGGGGGGGAGGGAGGGGAGG",
"GGGGAAGGGGCCACCCCCCAGCCCAGGGGAGG",
"GGGGAGGGGGGGGGGGGGAGGGGGAGGGGAGG",
"GCAAAGGGGGCCCAAACACGGGGGGGGGGAGG",
"CADDDAGGGGGGADDDACGGGGGGGGGGGAGG",
"ADDDDDAGGGGADDDDDAGGGGGGGGGGGAGG",
"ADDGGGAGAAGADDGGGAGGGGGGGGGGGAGG",
"ADGGEEAAGGAADGGEEAAAAAAAAAAAAAGG",
"ADGEEEAGGGGADGEEEAGGGGGGGGGGGGGG",
"ADEEEEAGGGGADEEEEAGGGGGGGGGGGGGG",
"AEEEEEAGGGGAEEEEEAGGGGGGGGGGGGGG",
"GAEEEAGGGGGGAEEEAGGGGGGGGGGGGGGG",
"GGAAAGGGGGGGGAAAGGGGGGGGGGGGGGGG",
"XPMENDEXT"
};