/* XPM */
static char * strongs_xpm[] = {
"25 25 3 1",
" 	c None",
".	c #000000",
"+	c #1B14E0",
"                         ",
"                         ",
"       ..       ..       ",
"      ..         ..      ",
"     ..           ..     ",
"    ..             ..    ",
"   ..               ..   ",
"  ..                 ..  ",
" ..  ++++ +++++ ++++  .. ",
" .  +       +   +   +  . ",
"..  +       +   +   +  ..",
"..  +       +   +   +  ..",
"..   ++++   +   ++++   ..",
"..      +   +   +   +  ..",
"..      +   +   +   +  ..",
" .      +   +   +   +  . ",
" .. ++++    +   +   + .. ",
"  ..                 ..  ",
"   ..               ..   ",
"    ..             ..    ",
"     ..           ..     ",
"      ..         ..      ",
"       ..       ..       ",
"                         ",
"                         "};
