/* XPM */
static char * strongs2_xpm[] = {
"25 25 4 1",
" 	c None",
".	c #F7111C",
"+	c #0A1DCC",
"@	c #717487",
"                         ",
"                         ",
"                         ",
"                         ",
"                         ",
"       ..       ..       ",
"      ..         ..      ",
"     ..           ..     ",
"    ..             ..    ",
"   ..               ..   ",
"  ..  +@++++@+++@+@  ..  ",
" ..   +@+@ +@+@  +@   ..@",
" .@   +@   +@++@ +@    .@",
" .@   +@   +@  +@+@    .@",
" ..@  +@   +@  +@+@   ..@",
"  ..@ +@   +@++@ +@  ..@ ",
"   ..@              ..@  ",
"    ..@            ..@   ",
"     ..@          ..@    ",
"      ..@        ..@     ",
"       ..@      ..@      ",
"                         ",
"                         ",
"                         ",
"                         "};
