/* XPM */
static char * sword3_xpm[] = {
"64 58 256 2",
"  	c None",
". 	c #F8F4F5",
"+ 	c #F3ECEE",
"@ 	c #EAE4E6",
"# 	c #D1C5CA",
"$ 	c #EFE8EB",
"% 	c #EFE9EC",
"& 	c #ECE6E9",
"* 	c #E8DFE4",
"= 	c #60555D",
"- 	c #E0D9E0",
"; 	c #F2EDF2",
"> 	c #FEFDFE",
", 	c #FCFBFC",
"' 	c #574E58",
") 	c #DFD7E0",
"! 	c #D9D3DF",
"~ 	c #525259",
"{ 	c #E9E9EB",
"] 	c #FEFEFF",
"^ 	c #A9A9AA",
"/ 	c #424345",
"( 	c #010B1B",
"_ 	c #939598",
": 	c #000D1F",
"< 	c #001022",
"[ 	c #434E5A",
"} 	c #29333D",
"| 	c #999C9F",
"1 	c #041525",
"2 	c #333E48",
"3 	c #203D56",
"4 	c #46525B",
"5 	c #65717A",
"6 	c #606970",
"7 	c #021C2E",
"8 	c #072031",
"9 	c #485A67",
"0 	c #1A384B",
"a 	c #162935",
"b 	c #7E898F",
"c 	c #245169",
"d 	c #C6CED2",
"e 	c #929495",
"f 	c #848687",
"g 	c #828485",
"h 	c #00293A",
"i 	c #9DA9AE",
"j 	c #A3AFB4",
"k 	c #033649",
"l 	c #A8B7BC",
"m 	c #888B8C",
"n 	c #DAE1E3",
"o 	c #F7F8F8",
"p 	c #888989",
"q 	c #F9F9F8",
"r 	c #FBFAF8",
"s 	c #F8F7F5",
"t 	c #C0A681",
"u 	c #F2F0ED",
"v 	c #AE8E61",
"w 	c #C5A373",
"x 	c #B7976C",
"y 	c #B1936B",
"z 	c #BA9B71",
"A 	c #AC916C",
"B 	c #917F67",
"C 	c #96744C",
"D 	c #9D7B53",
"E 	c #A7855A",
"F 	c #AC8A5F",
"G 	c #A1815A",
"H 	c #B59266",
"I 	c #917655",
"J 	c #937857",
"K 	c #A88A65",
"L 	c #8D7558",
"M 	c #D8B589",
"N 	c #A78B6A",
"O 	c #9D8464",
"P 	c #7A6955",
"Q 	c #A79075",
"R 	c #AD967B",
"S 	c #AC9880",
"T 	c #5A5146",
"U 	c #D3C1AB",
"V 	c #CCBDAB",
"W 	c #8A6A45",
"X 	c #A78661",
"Y 	c #8A6F50",
"Z 	c #9C7E5C",
"` 	c #AF9374",
" .	c #B39778",
"..	c #A6937D",
"+.	c #C9B6A1",
"@.	c #72563A",
"#.	c #A88D71",
"$.	c #A08A74",
"%.	c #B69E85",
"&.	c #C3AF9B",
"*.	c #88827C",
"=.	c #D4CDC6",
"-.	c #FAF8F6",
";.	c #FCFBFA",
">.	c #FAF9F8",
",.	c #7A5F45",
"'.	c #968677",
").	c #B3A496",
"!.	c #5B4A3B",
"~.	c #89705B",
"{.	c #E2D6CC",
"].	c #C3BBB4",
"^.	c #9F9994",
"/.	c #CAC3BD",
"(.	c #DFD9D4",
"_.	c #9E9085",
":.	c #C3B7AE",
"<.	c #F0ECE9",
"[.	c #E5DCD6",
"}.	c #D5D2D0",
"|.	c #AB9689",
"1.	c #A89C95",
"2.	c #B4AAA4",
"3.	c #CFC8C4",
"4.	c #86766E",
"5.	c #DBD7D5",
"6.	c #EDE9E7",
"7.	c #E7E5E4",
"8.	c #CAB5AB",
"9.	c #C3AEA5",
"0.	c #CFB9B0",
"a.	c #BAB3B0",
"b.	c #B6B1AF",
"c.	c #CEBBB4",
"d.	c #CAB8B1",
"e.	c #D4C2BC",
"f.	c #EBE2DF",
"g.	c #DDDAD9",
"h.	c #C9B7B2",
"i.	c #C6B5B0",
"j.	c #D0BDB8",
"k.	c #CFBCB7",
"l.	c #DCD0CD",
"m.	c #B7B3B2",
"n.	c #D7C9C6",
"o.	c #E5DCDA",
"p.	c #D4C4C1",
"q.	c #DACDCB",
"r.	c #D0BFBD",
"s.	c #E0D4D3",
"t.	c #695D5D",
"u.	c #E9DCDC",
"v.	c #F2F0F0",
"w.	c #7D7C7C",
"x.	c #FEFDFD",
"y.	c #9F9E9E",
"z.	c #858484",
"A.	c #FFFFFF",
"B.	c #FEFEFE",
"C.	c #FDFDFD",
"D.	c #FCFCFC",
"E.	c #FBFBFB",
"F.	c #FAFAFA",
"G.	c #F6F6F6",
"H.	c #F5F5F5",
"I.	c #F3F3F3",
"J.	c #F1F1F1",
"K.	c #EEEEEE",
"L.	c #EDEDED",
"M.	c #EAEAEA",
"N.	c #E9E9E9",
"O.	c #E7E7E7",
"P.	c #E4E4E4",
"Q.	c #E3E3E3",
"R.	c #E0E0E0",
"S.	c #DFDFDF",
"T.	c #DDDDDD",
"U.	c #DCDCDC",
"V.	c #DADADA",
"W.	c #D7D7D7",
"X.	c #D4D4D4",
"Y.	c #D3D3D3",
"Z.	c #D1D1D1",
"`.	c #CFCFCF",
" +	c #CDCDCD",
".+	c #CBCBCB",
"++	c #C8C8C8",
"@+	c #C6C6C6",
"#+	c #C4C4C4",
"$+	c #C3C3C3",
"%+	c #BFBFBF",
"&+	c #BCBCBC",
"*+	c #BBBBBB",
"=+	c #BABABA",
"-+	c #B8B8B8",
";+	c #B7B7B7",
">+	c #B4B4B4",
",+	c #B3B3B3",
"'+	c #B1B1B1",
")+	c #AFAFAF",
"!+	c #ACACAC",
"~+	c #AAAAAA",
"{+	c #A9A9A9",
"]+	c #A6A6A6",
"^+	c #A3A3A3",
"/+	c #A1A1A1",
"(+	c #9D9D9D",
"_+	c #9A9A9A",
":+	c #989898",
"<+	c #979797",
"[+	c #959595",
"}+	c #939393",
"|+	c #919191",
"1+	c #8F8F8F",
"2+	c #8E8E8E",
"3+	c #8D8D8D",
"4+	c #8A8A8A",
"5+	c #878787",
"6+	c #838383",
"7+	c #818181",
"8+	c #7E7E7E",
"9+	c #7B7B7B",
"0+	c #787878",
"a+	c #777777",
"b+	c #757575",
"c+	c #727272",
"d+	c #717171",
"e+	c #6F6F6F",
"f+	c #6C6C6C",
"g+	c #6A6A6A",
"h+	c #656565",
"i+	c #626262",
"j+	c #616161",
"k+	c #5F5F5F",
"l+	c #5D5D5D",
"m+	c #5B5B5B",
"n+	c #595959",
"o+	c #575757",
"p+	c #555555",
"q+	c #535353",
"r+	c #515151",
"s+	c #4F4F4F",
"t+	c #4D4D4D",
"u+	c #494949",
"v+	c #464646",
"w+	c #404040",
"x+	c #3D3D3D",
"y+	c #3A3A3A",
"z+	c #363636",
"A+	c #343434",
"B+	c #303030",
"C+	c #2B2B2B",
"D+	c #262626",
"E+	c #1F1F1F",
"F+	c #161616",
"G+	c #0F0F0F",
"                                                            ].1.=.                                                              ",
"                                                          w.a 1 } 2.                                                            ",
"                                                        /.1 ( ( : 2 o.                                                          ",
"                                                        y.: < < : a ].                                                          ",
"                                                        /.a : : < 4 <.                                                          ",
"                                                          1./ 2 ~ 3.                                                            ",
"                                                          <.'.~._.                                                              ",
"                                                          7.I D '.                                                              ",
"                                                          `.!.,.t.                                                              ",
"                                                          i ( 3 0 n                                                             ",
"                                                          b ( c 0 d                                                             ",
"                                                          5 1 c 3 l                                                             ",
"                                                          9 1 c 3 l                                                             ",
"                                                          [ a c 3 i                                                             ",
"                                                          P F t L 2.                                                            ",
"                                                          O w M K 2.                                                            ",
"                                                          P A t Y ^.                                                            ",
"                                                          2 k 0 8 b                                                             ",
"                                                          2 h k 7 j                                                             ",
"                                                          4 h k 8 i                                                             ",
"                                                          4 h k 7 j                                                             ",
"                                                          6 h k 8 d                                                             ",
"                                                          *.P B T U.                                                            ",
"                                                          4.W w ,.}.                                                            ",
"                                  u z K A  .#.N O Q R S $.L O O K $...S %.S Q #.` y %.t [.                                      ",
"                                  u Y B J Z ` H H x w z E B = ' 4.w E v F F G D O I H I {.                                      ",
"                  K.                g.(.=.l.:.+.&.R G F v P = t.4.H G C C #.).).).2.2.:.u                                       ",
"                v+i+                                =.~.W Y N N #.v @.B (.                                                      ",
"              O.C+Q.                                  O.@.D x x D @.'.                                                          ",
"              &+v+                                      $.Z K K ,.W 3.                                                          ",
" +!+'+!+!+'+*+j+i+                                      U e.t X 2.Q =.                                                          ",
"d+{+X.u+e+Y.0+z+^+  N.    N.                            +.s.+.` ! |.5.                                                          ",
"L.    e+(+  L.C+/+_+F+7+%+m+8+                        [.N s.&.` ) |.1.                                                          ",
"      f+:+    x+d+<+n+m+c+*+s+@+                      U %.* %.G # i.`                                                           ",
"      f+:+    x+l+  f+x+z+b+g+K.                          o. .v |.)                                                             ",
"      d+(+    A+,+  q+4+y+L.  R.                          q.y H $.-                                                             ",
"    N.w+h+L.  y+ +;+_+  t+;+=+>+                          f.V &.i.&                                                             ",
"    1+a+9+y.~+u+p+C+ +  z.E+s+}+  Q.2+3+|+.+  ,+_+_+!+  P.^ _ | e =+      Z.!+'+-+;+;+R.      R.@+@+++ +Z.`.W.                  ",
"          L.l+]+8+i+>+  S.p+n+ +    )+u+z.L.  Q.'+g+`.&+g+[+W.6.V.4+z.    K.*+7+.+R.!+[+P.       +/+`.M.L.T.,+*+                ",
"          #+y+.+K.#+Z.    1+l+      #+/ p       >+[+O.g+(+[.e.8.n.g.<+[+      5+N.    :+-+      K.y.S.      Q.'+%+              ",
"          ++D+p           .+/ V.    p x+p+Q.    [+>+y.b+  {.0.9.9.@ { b+;+    z.O.    <+!+      L.<+V.        S.{+`.            ",
"            l+F+p+V.        q+0+    f+_+t+$+    d+X.c+2+  l.0.9.9.f.  1+4+    z.U.  `.3+U.      M.|+W.          {+*+            ",
"            P.q+G+A+ +      (+r+  ++h+M.j+i+  `.6+  f+p   s.0.9.9.@   _+6+    7+,+^+0+W.        N.4+W.          ^+>+            ",
"                1+D+z+Q.    R.y+=+!+|+  =+A+$+7+!+  6+7+  l.c.d.9.$   [+9+    9+Q.O.b+>+        N.6+X.          (+!+            ",
"          '+7+    ++E+|+      f+p+h+X.  L.v+k+q+N.  '+q+O.u.j.8.p.+   b+p     b+N.  ,+c+Z.      O.9+Z.          }+'+            ",
"          @+m+      z+w.      '+F+q+      8+C+g+      r+9+f.e.j.p.   +q+Y.    e+Q.    ,+5+      N.0+`.        Y.4+R.            ",
"           +D+Y.  2+A+U.      M.E+a+      .+C+/+      -+t+9+b.a.m.|+i+]+    $+j+:+N.    }+]+  L.;+d+[+p+@+   +4+%+              ",
"            8+m+w+r+$+          _+.+        :+O.        N.4+g m f 2+O.  -+w+x+/ }+Y.      1+{+&+^+]+/+k+9+^+>+V.          X.L.  ",
"                X.                                        6.[.[.[.      W.D+_+)+j+K.      W.}+&+M.      R.Q.V.      N.    s+y.  ",
"                                                          l.k.j.j.$       l+X.  o+m+m+d+r+]+)+f+v+P._+u+S.1+h+_+  *+m+v+#+B+6+  ",
"                                                          l.c.e.p.%       l+~+!+p+%+/ G+9+]+a+  t+/+,+G+2+l+&+x+#+k+Y.b+.+u+    ",
"                                                          n.j.c.k.@       k+b+8+T.  o+D+K.7+(+  c+(+X.w+m+B+0+[+_+b+    P.w+    ",
"                                                          l.c.8.j.@       l+`.      t+l+  e+/+  f+'+`.h+l+n+    9+b+  T.%+v+  R.",
"                                                          l.c.d.d.&     K.x+2+      u+!+  5+t+@+w.  X.h+[+y+.+]+:+t+;+6+$+z+_+(+",
"                                                          s.r.r.p.&     &+0+0+{+    _+      4+4+    )+n+  (+6+Q.  ^+7+R.  (+<+  ",
"                                                          q.r.p.c.&                                 q+_+                        ",
"                                                          n.h.h.h.@                               @+g+                          ",
"                                                          o.n.n.q.;                               ++                            "};
