/* XPM */
static char * sword_xpm[] = {
"32 32 6 1",
" 	c None",
".	c #008080",
"+	c #000000",
"@	c #C0C0C0",
"#	c #808080",
"$	c #FFFFFF",
"........+.......................",
".@@@@@@@+@@@@@@@@@@@@@@@@@@@@@@.",
".@@@@@@+@@@@@@@@@@@@@@@@@@@@@@@.",
"++++++@+@@@@@@@@@@@@@@@@@@@@@@@.",
"+@@+@+@+@@@@@@@@@@@@@@@@@@@@@@@.",
".@@+@@@+@@+@@++@@@@@@@@@@@@@@@@.",
".@@+@@@++++@+@+@@@@@@@@@@@@@@@@.",
".@@+@@@++@+@++@@@@@@@@@@@@@@@@@.",
".@@+@@@+@@+@+@+@@@@@@@@@@@@@@@@.",
".@++@@@+@+@@+++@@@@@@@@@@@@@@@@.",
".@@@@@@@+@@@@@@@@@@@@@@@@@@@@@@.",
".@@@@@@+@@@@@@@@@@@@@@@@@@@@@@@.",
"++++++@###@###@########@@@$$$$@.",
"+@+@+@@@#@@@#@#@@@@##@@@@@$@@@$.",
"+@@@+@@+@#@@##@@@@@@#@@@@@@@@@@$",
".+@@@+@+@#@#@#@@@@@@###@@@@@@@@$",
".@++@+@+@+@#@#@@@@@@#@@#@@@@@@@$",
"+@@+@++@@@+#@#@@@@@@#@@#@@@@@@@$",
"+@@+@@+@@@+@@@#@@@@###@@@@@@@@$.",
".++@@@+@@@+@@@@########@#@@@@$@.",
".@@@@@@@@@@@@@@@@@@@+@@@@@@@@@@.",
".@@@@++++@@@@@@@@@@@@@@@@@@@@@+.",
".@@@@@+@+@@@@@@@@@@@@@@@@@@@@@+.",
".@@@@@+@+@++@+@++@+++@++@@++@+++",
".@@@@@++@@@++@+@+@@@++@+@+@+@@+.",
".@@@@@+@@@@+@@+@+@@+@++@@+@@@@+.",
".@@@@@+@@@@+@@+@+@@+@+@+@+@+@@++",
".@@@@++@@@@+@@++@@@+@+++@+++@@++",
".@@@@@@@@@@@@@@@@@@+@@@@@@@@@@@.",
".@@@@@@@@@@@@@@@@@@+@@@@@@@@@@@.",
".@@@@@@@@@@@@@@@@@+@@@@@@@@@@@@.",
"................................"};
