/* XPM */
static char * yes_xpm[] = {
"18 19 11 1",
" 	c None",
".	c #39DC39",
"+	c #00D200",
"@	c #FFFFFF",
"#	c #C7F5C7",
"$	c #72E672",
"%	c #1DD71D",
"&	c #55E155",
"*	c #E3FAE3",
"=	c #AAF0AA",
"-	c #8EEB8E",
"                  ",
"              .++ ",
"           @#+++$ ",
"          @ %++&@ ",
"         @ .++%*  ",
"          $+++*   ",
"        @#+++=    ",
"       @ %++$@    ",
"        &++.@     ",
"   @ @ =++%       ",
"  *#@@*%++=       ",
" &++* &++&        ",
" +++-=++%@        ",
" +++%%++#         ",
" .+++++$@         ",
" -++++%@          ",
" *++++#@          ",
"  $++&            ",
"                 @"};
