/* XPM */
static char * gs2_xpm[] = {
"32 32 394 2",
"  	c None",
". 	c #ADAB81",
"+ 	c #9E9B75",
"@ 	c #868062",
"# 	c #7E745B",
"$ 	c #5D3F38",
"% 	c #4D1A23",
"& 	c #390B17",
"* 	c #ABA980",
"= 	c #B1B085",
"- 	c #867F62",
"; 	c #6A5B49",
"> 	c #563331",
", 	c #6D3038",
"' 	c #762535",
") 	c #7D2336",
"! 	c #440E1B",
"~ 	c #B3AA83",
"{ 	c #ADA17D",
"] 	c #A89E7A",
"^ 	c #95876A",
"/ 	c #7B6352",
"( 	c #52292C",
"_ 	c #5B242C",
": 	c #621C2B",
"< 	c #7A1F35",
"[ 	c #88253B",
"} 	c #89243B",
"| 	c #8D253D",
"1 	c #8C273D",
"2 	c #641B2A",
"3 	c #44121C",
"4 	c #18374B",
"5 	c #3F7598",
"6 	c #4E8AB2",
"7 	c #4F89B0",
"8 	c #2B5372",
"9 	c #8A8565",
"0 	c #7B7259",
"a 	c #776A54",
"b 	c #6D4C43",
"c 	c #643637",
"d 	c #642831",
"e 	c #6E2031",
"f 	c #781F33",
"g 	c #822038",
"h 	c #851C3C",
"i 	c #851B3D",
"j 	c #881F3D",
"k 	c #8C243E",
"l 	c #8E273F",
"m 	c #8D283E",
"n 	c #742233",
"o 	c #3F111B",
"p 	c #38698E",
"q 	c #72BDED",
"r 	c #7FCBF9",
"s 	c #8CD6FD",
"t 	c #6CACD1",
"u 	c #142F41",
"v 	c #140508",
"w 	c #4F1E26",
"x 	c #6E2C36",
"y 	c #6C2030",
"z 	c #4A0E1C",
"A 	c #681529",
"B 	c #862439",
"C 	c #8B263D",
"D 	c #8A243C",
"E 	c #861E3D",
"F 	c #8B283C",
"G 	c #8B2A3C",
"H 	c #851E3E",
"I 	c #841D40",
"J 	c #882240",
"K 	c #8C2640",
"L 	c #802539",
"M 	c #541725",
"N 	c #031724",
"O 	c #4F8FB8",
"P 	c #8BD4FD",
"Q 	c #8FCFF5",
"R 	c #9EDBF8",
"S 	c #A4EBFF",
"T 	c #39637D",
"U 	c #330C15",
"V 	c #792134",
"W 	c #8E273D",
"X 	c #87253A",
"Y 	c #611628",
"Z 	c #6B1A2D",
"` 	c #8C253E",
" .	c #88213D",
"..	c #85223E",
"+.	c #9C4935",
"@.	c #C99422",
"#.	c #C28925",
"$.	c #8E3239",
"%.	c #801740",
"&.	c #831C40",
"*.	c #892240",
"=.	c #8A283D",
"-.	c #621B2B",
";.	c #310D15",
">.	c #071825",
",.	c #4D83A4",
"'.	c #97D7FA",
").	c #9ED9F4",
"!.	c #AAE0F6",
"~.	c #B8F1FF",
"{.	c #4E7386",
"].	c #5D1A28",
"^.	c #802438",
"/.	c #90293F",
"(.	c #8E293E",
"_.	c #832539",
":.	c #5D1826",
"<.	c #802338",
"[.	c #8A2440",
"}.	c #7F1B40",
"|.	c #9E5433",
"1.	c #EAD014",
"2.	c #ECD313",
"3.	c #C28B24",
"4.	c #B77928",
"5.	c #A85D2F",
"6.	c #93343B",
"7.	c #8B253E",
"8.	c #8B283E",
"9.	c #3A1019",
"0.	c #345D75",
"a.	c #87C0DD",
"b.	c #ABE3F9",
"c.	c #C3F6FF",
"d.	c #A7DFF3",
"e.	c #41687C",
"f.	c #822639",
"g.	c #8C293E",
"h.	c #8F2A3F",
"i.	c #651B2B",
"j.	c #762034",
"k.	c #85213F",
"l.	c #974336",
"m.	c #B2752A",
"n.	c #F6E40F",
"o.	c #EFD912",
"p.	c #EFDC11",
"q.	c #D0A21E",
"r.	c #A35033",
"s.	c #8C263F",
"t.	c #46131E",
"u.	c #142D3C",
"v.	c #3C6681",
"w.	c #6194AF",
"x.	c #6DA6BA",
"y.	c #4C839E",
"z.	c #661D2D",
"A.	c #84273B",
"B.	c #912A40",
"C.	c #6C1E2F",
"D.	c #661A2D",
"E.	c #87213F",
"F.	c #933839",
"G.	c #DAB41A",
"H.	c #F4E10F",
"I.	c #FAEA0D",
"J.	c #F9E70E",
"K.	c #F1DC10",
"L.	c #E3C416",
"M.	c #BC8027",
"N.	c #9A4336",
"O.	c #8B2540",
"P.	c #8C283E",
"Q.	c #722132",
"R.	c #2F0C14",
"S.	c #01070D",
"T.	c #000102",
"U.	c #501723",
"V.	c #84273A",
"W.	c #922B41",
"X.	c #8B293D",
"Y.	c #7C2436",
"Z.	c #62192B",
"`.	c #811E3B",
" +	c #8F303B",
".+	c #D2A61E",
"++	c #E7CA15",
"@+	c #F1DB11",
"#+	c #E3C217",
"$+	c #B97B28",
"%+	c #8E3139",
"&+	c #86223E",
"*+	c #8C273E",
"=+	c #4E1522",
"-+	c #000000",
";+	c #42131C",
">+	c #912B40",
",+	c #902A3F",
"'+	c #822539",
")+	c #591727",
"!+	c #7B1E37",
"~+	c #88243E",
"{+	c #974236",
"]+	c #954137",
"^+	c #A25731",
"/+	c #D6AE1C",
"(+	c #E9CD15",
"_+	c #BA8026",
":+	c #84213D",
"<+	c #811A40",
"[+	c #8A233F",
"}+	c #8D283F",
"|+	c #5B1A27",
"1+	c #6D1F30",
"2+	c #8E2A3F",
"3+	c #922B40",
"4+	c #88273C",
"5+	c #6E1F30",
"6+	c #6F1C32",
"7+	c #86223F",
"8+	c #7F1940",
"9+	c #8B303A",
"0+	c #C49024",
"a+	c #F0D912",
"b+	c #CEA120",
"c+	c #8D323A",
"d+	c #821D3F",
"e+	c #89233F",
"f+	c #7C2437",
"g+	c #4F1622",
"h+	c #88283C",
"i+	c #922C40",
"j+	c #89273C",
"k+	c #812539",
"l+	c #5E1929",
"m+	c #822439",
"n+	c #811D3F",
"o+	c #AD682D",
"p+	c #E4C716",
"q+	c #9E4F33",
"r+	c #87233F",
"s+	c #8C273F",
"t+	c #7B2436",
"u+	c #350F16",
"v+	c #2B0B13",
"w+	c #87273B",
"x+	c #651C2B",
"y+	c #792234",
"z+	c #8B2640",
"A+	c #862140",
"B+	c #801940",
"C+	c #9D4B33",
"D+	c #EFD812",
"E+	c #AD682C",
"F+	c #88293C",
"G+	c #8B273F",
"H+	c #8E293F",
"I+	c #832639",
"J+	c #511723",
"K+	c #8D293F",
"L+	c #6F2030",
"M+	c #681C2C",
"N+	c #892540",
"O+	c #7F1741",
"P+	c #8B2C3B",
"Q+	c #D8AF1B",
"R+	c #F5E210",
"S+	c #C28C24",
"T+	c #903639",
"U+	c #831D3F",
"V+	c #89243F",
"W+	c #6C1F2F",
"X+	c #2F0D14",
"Y+	c #551725",
"Z+	c #89283C",
"`+	c #631B2A",
" @	c #8A2640",
".@	c #831F3E",
"+@	c #C69123",
"@@	c #F3E010",
"#@	c #D1A51E",
"$@	c #974335",
"%@	c #821C3F",
"&@	c #87223F",
"*@	c #8D293E",
"=@	c #6F2031",
"-@	c #44121D",
";@	c #7E2437",
">@	c #932C42",
",@	c #84263A",
"'@	c #621B2A",
")@	c #7F2438",
"!@	c #852040",
"~@	c #B06D2B",
"{@	c #E7CE14",
"]@	c #EAD511",
"^@	c #B16E2A",
"/@	c #84203E",
"(@	c #8C283F",
"_@	c #85273A",
":@	c #541824",
"<@	c #300C13",
"[@	c #732132",
"}@	c #89283D",
"|@	c #772233",
"1@	c #731F31",
"2@	c #88273D",
"3@	c #882340",
"4@	c #A25532",
"5@	c #D5AF1B",
"6@	c #E9D410",
"7@	c #B87C26",
"8@	c #86253C",
"9@	c #87233E",
"0@	c #8F2A40",
"a@	c #86273A",
"b@	c #5A1927",
"c@	c #88273B",
"d@	c #87273C",
"e@	c #621A29",
"f@	c #8A273F",
"g@	c #86233E",
"h@	c #8C2F3A",
"i@	c #9D4C32",
"j@	c #A25630",
"k@	c #933B36",
"l@	c #86243D",
"m@	c #88263F",
"n@	c #8C2A3F",
"o@	c #2D0C12",
"p@	c #3A0F18",
"q@	c #8A283C",
"r@	c #681D2D",
"s@	c #7C2336",
"t@	c #8C293F",
"u@	c #89263E",
"v@	c #87243E",
"w@	c #88263D",
"x@	c #88253E",
"y@	c #89253F",
"z@	c #902A40",
"A@	c #942B42",
"B@	c #942C41",
"C@	c #7F2437",
"D@	c #47141E",
"E@	c #22080D",
"F@	c #752133",
"G@	c #8C283D",
"H@	c #8B283D",
"I@	c #782234",
"J@	c #742131",
"K@	c #8D2A3F",
"L@	c #8E2A40",
"M@	c #8C2740",
"N@	c #8D2740",
"O@	c #8E2740",
"P@	c #42121C",
"Q@	c #5A1926",
"R@	c #772234",
"S@	c #6C1E2E",
"T@	c #932A40",
"U@	c #922A41",
"V@	c #7D2437",
"W@	c #6B1E2F",
"X@	c #671D2D",
"Y@	c #521723",
"Z@	c #43121C",
"`@	c #1E080D",
" #	c #43121D",
".#	c #802538",
"+#	c #962C42",
"@#	c #701F30",
"##	c #7A2336",
"$#	c #6B1F2E",
"%#	c #591927",
"&#	c #3B1019",
"*#	c #391018",
"=#	c #310E15",
"-#	c #2E0C13",
";#	c #702031",
">#	c #5E1A28",
",#	c #6D1F2F",
"'#	c #691D2D",
")#	c #47131E",
"!#	c #380F18",
"~#	c #22090E",
"{#	c #17060A",
"]#	c #661D2C",
"^#	c #551624",
"/#	c #300B13",
"(#	c #1C050B",
"_#	c #160509",
":#	c #1D070C",
"<#	c #0C0204",
"                                                                ",
"                                                                ",
"                                                                ",
"                                                                ",
"                        . + @ # $ % &                           ",
"                    * = - ; > , ' ) !                           ",
"          ~ { ] ^ / ( _ : < [ } | 1 2 3       4 5 6 7 8         ",
"      9 0 a b c d e f g h i j k l m n o       p q r s t u       ",
"  v w x y z A B C D E E F G H I J K L M     N O P Q R S T       ",
"  U V W X Y Z 1 `  ...+.@.#.$.%.&.*.=.-.;.  >.,.'.).!.~.{.      ",
"  ].^./.(._.:.<.[.I }.|.1.2.3.4.5.6.7.8.9.    0.a.b.c.d.e.      ",
"    f.g.h.=.i.j.J k.l.m.2.n.o.p.q.r.s.8.t.    u.v.w.x.y.        ",
"    z.A.B.F C.D.E.F.G.H.I.J.K.L.M.N.O.P.Q.R.        S.T.        ",
"    U.V.W.X.Y.Z.`. +.+++++@+#+$+%+&+[.*+V.=+          -+        ",
"    ;+n >+,+'+)+!+~+{+]+^+/+(+_+:+<+[+}+=.|+          -+        ",
"      1+2+3+4+5+6+..7+8+9+0+a+b+c+d+e+}+g.f+          -+        ",
"      g+h+i+j+k+l+m+e+&.n+o+@+p+q+..r+s+g.t+u+                  ",
"      v+h+>+8.w+x+y+z+A+B+C+(+D+E+F+k.G+H+I+J+                  ",
"        5+K+h.4+L+M+8.N+O+P+Q+R+S+T+U+V+H+P.W+X+                ",
"        Y+X.W.Z+t+`+h+ @<+.@+@@@#@$@%@&@H+*@=@9.                ",
"        -@;@>@g.,@'@)@G+!@d+~@{@]@^@/@r+(@h._@:@                ",
"        <@[@>+>+}@|@1@2@3@/@4@5@6@7@8@9@(@0@a@b@                ",
"          M *@W.c@d@e@^.f@g@h@i@j@k@l@m@n@>+h.'+o@              ",
"          p@X.3+j+q@r@s@t@u@v@w@u@x@y@G+z@A@B@C@D@              ",
"          E@F@z@G@H@I@J@K@L@M@N@O@O@}+*@g.}@L F@P@              ",
"            Q@*@,+c@R@S@g.T@U@z@P.8.d@V@W@X@Y@Z@`@              ",
"             #.#+#*@4+@#=.,+_@##$#%#&#*#=#                      ",
"            -#;#B@h.'+>#,#'#)#!#~#{#                            ",
"              t.]#^#/#E@(#_#                                    ",
"                  :#<#                                          ",
"                                                                ",
"                                                                "};
