/* XPM */
static char * exit2_xpm[] = {
"35 35 6 1",
" 	c None",
".	c #000000",
"+	c #CCCCCC",
"@	c #FFFF00",
"#	c #E5E5E5",
"$	c #FF0000",
"                                   ",
"                                   ",
"                                   ",
"                                   ",
"                                   ",
"                                   ",
"            ................       ",
"            .+++++++++++.@@.       ",
"            .+#########+.@@.       ",
"            .+#########+.@@.       ",
"            .+#########+.@@.       ",
"            .+#########+.@@.       ",
"            .$#########+.@@.       ",
"            .$$########+.@@.       ",
"            .$$$####++++.@@.       ",
"       $$$$$$$$$$++++..+.@@.       ",
"       $$$$$$$$$$$+++..+.@@.       ",
"       $$$$$$$$$$###++++.@@.       ",
"            .$$$#######+.@@.       ",
"            .$$########+.@@.       ",
"            .$#########+.@@.       ",
"            .+#########+.@@.       ",
"            .+#########+.@@.       ",
"            .+#########+.@@.       ",
"            .+++++++++...@@.       ",
"            .++++++...@@@@@.       ",
"            .+++...@@@@@@@@.       ",
"            .+..@@@@@@@@@@@.       ",
"            ................       ",
"                                   ",
"                                   ",
"                                   ",
"                                   ",
"                                   ",
"                                   "};
