/* XPM */
static char * p_xpm[] = {
"24 24 2 1",
" 	c None",
".	c #291BE5",
"                        ",
"                        ",
"                        ",
"                        ",
"     ..........         ",
"      .....  ....       ",
"       ...    ....      ",
"       ...     ....     ",
"       ...     ....     ",
"       ...     ....     ",
"       ...     ....     ",
"       ...     ....     ",
"       ...    ....      ",
"       ..........       ",
"       ....             ",
"       ...              ",
"       ...              ",
"       ...              ",
"       ...              ",
"       ....             ",
"     ........           ",
"                        ",
"                        ",
"                        "};
